<svg width="22" height="22" viewBox="0 0 22 22" fill="none" xmlns="http://www.w3.org/2000/svg">
<g clip-path="url(#clip0_1_1817)">
<path d="M7.33325 8.25H14.6666" stroke="white" stroke-linecap="round" stroke-linejoin="round"></path>
<path d="M7.33325 11.9167H12.8333" stroke="white" stroke-linecap="round" stroke-linejoin="round"></path>
<path d="M16.5 3.66675C17.2293 3.66675 17.9288 3.95648 18.4445 4.4722C18.9603 4.98793 19.25 5.6874 19.25 6.41675V13.7501C19.25 14.4794 18.9603 15.1789 18.4445 15.6946C17.9288 16.2104 17.2293 16.5001 16.5 16.5001H11.9167L7.33333 19.2501V16.5001H5.5C4.77065 16.5001 4.07118 16.2104 3.55546 15.6946C3.03973 15.1789 2.75 14.4794 2.75 13.7501V6.41675C2.75 5.6874 3.03973 4.98793 3.55546 4.4722C4.07118 3.95648 4.77065 3.66675 5.5 3.66675H16.5Z" stroke="white" stroke-linecap="round" stroke-linejoin="round"></path>
</g>
<defs>
<clipPath id="clip0_1_1817">
<rect width="22" height="22" fill="white"></rect>
</clipPath>
</defs>
</svg>