<svg width="22" height="22" viewBox="0 0 22 22" fill="none" xmlns="http://www.w3.org/2000/svg">
<g clip-path="url(#clip0_1_1730)">
<path d="M16.5 7.33325C17.2293 7.33325 17.9288 7.62298 18.4445 8.13871C18.9603 8.65443 19.25 9.35391 19.25 10.0833C19.25 10.8126 18.9603 11.5121 18.4445 12.0278C17.9288 12.5435 17.2293 12.8333 16.5 12.8333" stroke="white" stroke-linecap="round" stroke-linejoin="round"></path>
<path d="M9.16675 7.33325V17.4166C9.16675 17.6597 9.07017 17.8929 8.89826 18.0648C8.72635 18.2367 8.4932 18.3333 8.25008 18.3333H7.33341C7.0903 18.3333 6.85714 18.2367 6.68523 18.0648C6.51333 17.8929 6.41675 17.6597 6.41675 17.4166V12.8333" stroke="white" stroke-linecap="round" stroke-linejoin="round"></path>
<path d="M11 7.33345L15.147 3.87761C15.2675 3.77725 15.4141 3.7133 15.5697 3.69328C15.7252 3.67325 15.8832 3.69797 16.0252 3.76454C16.1672 3.83112 16.2873 3.93678 16.3714 4.06915C16.4555 4.20153 16.5001 4.35512 16.5 4.51195V15.6549C16.5001 15.8118 16.4555 15.9654 16.3714 16.0977C16.2873 16.2301 16.1672 16.3358 16.0252 16.4024C15.8832 16.4689 15.7252 16.4936 15.5697 16.4736C15.4141 16.4536 15.2675 16.3896 15.147 16.2893L11 12.8334H3.66667C3.42355 12.8334 3.19039 12.7369 3.01849 12.565C2.84658 12.3931 2.75 12.1599 2.75 11.9168V8.25011C2.75 8.007 2.84658 7.77384 3.01849 7.60193C3.19039 7.43003 3.42355 7.33345 3.66667 7.33345H11Z" stroke="white" stroke-linecap="round" stroke-linejoin="round"></path>
</g>
<defs>
<clipPath id="clip0_1_1730">
<rect width="22" height="22" fill="white"></rect>
</clipPath>
</defs>
</svg>