<svg width="22" height="22" viewBox="0 0 22 22" fill="none" xmlns="http://www.w3.org/2000/svg">
<g clip-path="url(#clip0_1_1754)">
<path d="M9.16675 4.58333C9.16675 5.06956 9.3599 5.53588 9.70372 5.8797C10.0475 6.22351 10.5139 6.41667 11.0001 6.41667C11.4863 6.41667 11.9526 6.22351 12.2964 5.8797C12.6403 5.53588 12.8334 5.06956 12.8334 4.58333C12.8334 4.0971 12.6403 3.63079 12.2964 3.28697C11.9526 2.94315 11.4863 2.75 11.0001 2.75C10.5139 2.75 10.0475 2.94315 9.70372 3.28697C9.3599 3.63079 9.16675 4.0971 9.16675 4.58333Z" stroke="white" stroke-linecap="round" stroke-linejoin="round"></path>
<path d="M2.75 17.4166C2.75 17.9028 2.94315 18.3691 3.28697 18.7129C3.63079 19.0568 4.0971 19.2499 4.58333 19.2499C5.06956 19.2499 5.53588 19.0568 5.8797 18.7129C6.22351 18.3691 6.41667 17.9028 6.41667 17.4166C6.41667 16.9304 6.22351 16.464 5.8797 16.1202C5.53588 15.7764 5.06956 15.5833 4.58333 15.5833C4.0971 15.5833 3.63079 15.7764 3.28697 16.1202C2.94315 16.464 2.75 16.9304 2.75 17.4166Z" stroke="white" stroke-linecap="round" stroke-linejoin="round"></path>
<path d="M15.5833 17.4166C15.5833 17.9028 15.7764 18.3691 16.1202 18.7129C16.464 19.0568 16.9304 19.2499 17.4166 19.2499C17.9028 19.2499 18.3691 19.0568 18.7129 18.7129C19.0568 18.3691 19.2499 17.9028 19.2499 17.4166C19.2499 16.9304 19.0568 16.464 18.7129 16.1202C18.3691 15.7764 17.9028 15.5833 17.4166 15.5833C16.9304 15.5833 16.464 15.7764 16.1202 16.1202C15.7764 16.464 15.5833 16.9304 15.5833 17.4166Z" stroke="white" stroke-linecap="round" stroke-linejoin="round"></path>
<path d="M8.25 12.8333C8.25 13.5626 8.53973 14.2621 9.05546 14.7778C9.57118 15.2935 10.2707 15.5833 11 15.5833C11.7293 15.5833 12.4288 15.2935 12.9445 14.7778C13.4603 14.2621 13.75 13.5626 13.75 12.8333C13.75 12.1039 13.4603 11.4044 12.9445 10.8887C12.4288 10.373 11.7293 10.0833 11 10.0833C10.2707 10.0833 9.57118 10.373 9.05546 10.8887C8.53973 11.4044 8.25 12.1039 8.25 12.8333Z" stroke="white" stroke-linecap="round" stroke-linejoin="round"></path>
<path d="M11 6.41675V10.0834" stroke="white" stroke-linecap="round" stroke-linejoin="round"></path>
<path d="M6.1416 16.3167L8.70827 14.4834" stroke="white" stroke-linecap="round" stroke-linejoin="round"></path>
<path d="M15.8584 16.3167L13.2917 14.4834" stroke="white" stroke-linecap="round" stroke-linejoin="round"></path>
</g>
<defs>
<clipPath id="clip0_1_1754">
<rect width="22" height="22" fill="white"></rect>
</clipPath>
</defs>
</svg>