<svg width="22" height="22" viewBox="0 0 22 22" fill="none" xmlns="http://www.w3.org/2000/svg">
    <g clip-path="url(#clip0_1_1738)">
    <path d="M6.41667 10.0834V17.4167C6.41667 17.6599 6.32009 17.893 6.14818 18.0649C5.97627 18.2368 5.74312 18.3334 5.5 18.3334H3.66667C3.42355 18.3334 3.19039 18.2368 3.01849 18.0649C2.84658 17.893 2.75 17.6599 2.75 17.4167V11.0001C2.75 10.757 2.84658 10.5238 3.01849 10.3519C3.19039 10.18 3.42355 10.0834 3.66667 10.0834H6.41667ZM6.41667 10.0834C7.38913 10.0834 8.32176 9.69711 9.00939 9.00947C9.69703 8.32184 10.0833 7.38921 10.0833 6.41675V5.50008C10.0833 5.01385 10.2765 4.54754 10.6203 4.20372C10.9641 3.8599 11.4304 3.66675 11.9167 3.66675C12.4029 3.66675 12.8692 3.8599 13.213 4.20372C13.5568 4.54754 13.75 5.01385 13.75 5.50008V10.0834H16.5C16.9862 10.0834 17.4525 10.2766 17.7964 10.6204C18.1402 10.9642 18.3333 11.4305 18.3333 11.9167L17.4167 16.5001C17.2848 17.0624 17.0348 17.5453 16.7041 17.876C16.3734 18.2066 15.9801 18.3672 15.5833 18.3334H9.16667C8.43732 18.3334 7.73785 18.0437 7.22212 17.528C6.7064 17.0122 6.41667 16.3128 6.41667 15.5834" stroke="white" stroke-linecap="round" stroke-linejoin="round"></path>
    </g>
    <defs>
    <clipPath id="clip0_1_1738">
    <rect width="22" height="22" fill="white"></rect>
    </clipPath>
    </defs>
</svg>