<svg width="1440" height="724" viewBox="0 0 1440 724" fill="none" xmlns="http://www.w3.org/2000/svg">
<rect opacity="0.2" x="0.222656" width="1440" height="724" fill="url(#paint0_linear_1_1645)"/>
<rect opacity="0.32" x="0.222656" width="1440" height="724" fill="url(#paint1_linear_1_1645)"/>
<path d="M1613.84 30.6057L1630.43 47.1886V0H1539.32V15.4356H1537.42V0H1443.06V15.4356H1441.17V0H1346.81V15.4356H1344.91V0H1250.56V15.4356H1248.66V0H1154.3V15.4356H1152.41V0H1058.05V15.4356H1056.15V0H961.792V15.4356H959.896V0H865.538V15.4356H863.642V0H769.283V15.4356H767.387V0H673.029V15.4356H671.133V0H576.774V15.4356H574.878V0H480.52V15.4356H478.624V0H384.265V15.4356H382.369V0H288.011V15.4356H286.115V0H191.756V15.4356H189.86V0H95.5019V15.4356H93.6056V0H-0.752592V15.4356H-2.64886V0H-96.9881V15.4356H-98.8844V0H-189.991V47.1981L-173.408 30.6152L-172.071 31.9521L-189.991 49.8718V105.935L-173.408 89.3521L-172.071 90.689L-189.991 108.628V164.691L-173.408 148.108L-172.071 149.445L-189.991 167.374V223.437L-173.408 206.854L-172.071 208.191L-189.991 226.12V282.183L-173.408 265.601L-172.071 266.937L-189.991 284.867V340.93L-173.408 324.347L-172.071 325.684L-189.991 343.613V399.676L-173.408 383.093L-172.071 384.43L-189.991 402.369V458.432L-173.408 441.849L-172.071 443.186L-189.991 461.115V517.178L-173.408 500.595L-172.071 501.932L-189.991 519.861V575.925L-173.408 559.342L-172.071 560.679L-189.991 578.608V634.671L-173.408 618.088L-172.071 619.425L-189.991 637.354V693.417L-173.408 676.834L-172.071 678.171L-189.991 696.11V752.173L-173.408 735.59L-172.071 736.927L-189.991 754.856V810.919L-173.408 794.337L-172.071 795.673L-189.991 813.603V869.666L-173.408 853.083L-172.071 854.42L-189.991 872.349V928.412L-173.408 911.829L-172.071 913.166L-189.991 931.095V987.158L-173.408 970.576L-172.071 971.912L-190 989.842V1023.97H-147.012V1022.46L-168.183 1001.29L-166.847 999.949L-146.064 1020.73L-125.28 999.949L-123.944 1001.29L-145.115 1022.46V1023.97H-50.7571V1022.46L-71.929 1001.29L-70.5921 999.949L-49.809 1020.73L-29.0259 999.949L-27.6891 1001.29L-48.8609 1022.46V1023.97H45.4974V1022.46L24.3255 1001.29L25.6624 999.949L46.4455 1020.73L67.2286 999.949L68.5655 1001.29L47.3936 1022.46V1023.97H141.752V1022.46L120.58 1001.29L121.917 999.949L142.7 1020.73L163.483 999.949L164.82 1001.29L143.648 1022.46V1023.97H238.006V1022.46L216.835 1001.29L218.171 999.949L238.955 1020.73L259.738 999.949L261.074 1001.29L239.903 1022.46V1023.97H334.261V1022.46L313.089 1001.29L314.426 999.949L335.209 1020.73L355.992 999.949L357.329 1001.29L336.157 1022.46V1023.97H430.515V1022.46L409.344 1001.29L410.68 999.949L431.464 1020.73L452.247 999.949L453.583 1001.29L432.412 1022.46V1023.97H526.77V1022.46L505.598 1001.29L506.935 999.949L527.718 1020.73L548.501 999.949L549.838 1001.29L528.666 1022.46V1023.97H623.024V1022.46L601.853 1001.29L603.189 999.949L623.972 1020.73L644.756 999.949L646.092 1001.29L624.921 1022.46V1023.97H719.279V1022.46L698.107 1001.29L699.444 999.949L720.227 1020.73L741.01 999.949L742.347 1001.29L721.175 1022.46V1023.97H815.533V1022.46L794.361 1001.29L795.698 999.949L816.482 1020.73L837.265 999.949L838.601 1001.29L817.43 1022.46V1023.97H911.788V1022.46L890.616 1001.29L891.953 999.949L912.736 1020.73L933.519 999.949L934.856 1001.29L913.684 1022.46V1023.97H1008.04V1022.46L986.871 1001.29L988.207 999.949L1008.99 1020.73L1029.77 999.949L1031.11 1001.29L1009.94 1022.46V1023.97H1104.3V1022.46L1083.13 1001.29L1084.46 999.949L1105.24 1020.73L1126.03 999.949L1127.36 1001.29L1106.19 1022.46V1023.97H1200.55V1022.46L1179.38 1001.29L1180.72 999.949L1201.5 1020.73L1222.28 999.949L1223.62 1001.29L1202.45 1022.46V1023.97H1296.81V1022.46L1275.63 1001.29L1276.97 999.949L1297.75 1020.73L1318.54 999.949L1319.87 1001.29L1298.7 1022.46V1023.97H1393.06V1022.46L1371.89 1001.29L1373.23 999.949L1394.01 1020.73L1414.79 999.949L1416.13 1001.29L1394.96 1022.46V1023.97H1489.31V1022.46L1468.14 1001.29L1469.48 999.949L1490.26 1020.73L1511.05 999.949L1512.38 1001.29L1491.21 1022.46V1023.97H1585.57V1022.46L1564.4 1001.29L1565.73 999.949L1586.52 1020.73L1607.3 999.949L1608.64 1001.29L1587.47 1022.46V1023.97H1630.44V989.832L1612.52 971.903L1613.85 970.566L1630.44 987.149V931.086L1612.51 913.157L1613.84 911.82L1630.43 928.403V872.34L1612.5 854.41L1613.83 853.073L1630.42 869.656V813.593L1612.49 795.664L1613.82 794.327L1630.41 810.91V754.847L1612.48 736.918L1613.81 735.581L1630.4 752.164V696.1L1612.47 678.171L1613.8 676.834L1630.39 693.417V637.354L1612.46 619.425L1613.8 618.088L1630.38 634.671V578.608L1612.45 560.679L1613.79 559.342L1630.37 575.925V519.861L1612.44 501.932L1613.78 500.595L1630.36 517.178V461.115L1612.43 443.186L1613.77 441.849L1630.35 458.432V402.369L1612.42 384.44L1613.76 383.103L1630.34 399.686V343.622L1612.41 325.693L1613.75 324.356L1630.33 340.939V284.876L1612.4 266.947L1613.74 265.61L1630.32 282.193V226.13L1612.39 208.201L1613.73 206.864L1630.31 223.447V167.383L1612.38 149.454L1613.72 148.117L1630.3 164.7V108.637L1612.37 90.7079L1613.71 89.371L1630.29 105.954V49.8718L1612.36 31.9426L1613.7 30.6057H1613.84ZM-145.115 963.721V984.779H-147.012V963.721L-168.183 942.549L-166.847 941.212L-146.064 961.995L-125.28 941.212L-123.944 942.549L-145.115 963.721ZM-145.115 904.974V926.032H-147.012V904.974L-168.183 883.802L-166.847 882.466L-146.064 903.249L-125.28 882.466L-123.944 883.802L-145.115 904.974ZM-145.115 846.228V867.286H-147.012V846.228L-168.183 825.056L-166.847 823.719L-146.064 844.502L-125.28 823.719L-123.944 825.056L-145.115 846.228ZM-145.115 787.482V808.54H-147.012V787.482L-168.183 766.31L-166.847 764.973L-146.064 785.756L-125.28 764.973L-123.944 766.31L-145.115 787.482ZM-145.115 728.735V749.793H-147.012V728.735L-168.183 707.563L-166.847 706.227L-146.064 727.01L-125.28 706.227L-123.944 707.563L-145.115 728.735ZM-145.115 669.989V691.047H-147.012V669.989L-168.183 648.817L-166.847 647.48L-146.064 668.263L-125.28 647.48L-123.944 648.817L-145.115 669.989ZM-145.115 611.243V632.301H-147.012V611.243L-168.183 590.071L-166.847 588.734L-146.064 609.517L-125.28 588.734L-123.944 590.071L-145.115 611.243ZM-145.115 552.496V573.554H-147.012V552.496L-168.183 531.324L-166.847 529.988L-146.064 550.771L-125.28 529.988L-123.944 531.324L-145.115 552.496ZM-145.115 493.75V514.808H-147.012V493.75L-168.183 472.578L-166.847 471.241L-146.064 492.024L-125.28 471.241L-123.944 472.578L-145.115 493.75ZM-145.115 435.004V456.062H-147.012V435.004L-168.183 413.832L-166.847 412.495L-146.064 433.278L-125.28 412.495L-123.944 413.832L-145.115 435.004ZM-145.115 376.257V397.315H-147.012V376.257L-168.183 355.085L-166.847 353.749L-146.064 374.532L-125.28 353.749L-123.944 355.085L-145.115 376.257ZM-145.115 317.511V338.569H-147.012V317.511L-168.183 296.339L-166.847 295.002L-146.064 315.785L-125.28 295.002L-123.944 296.339L-145.115 317.511ZM-145.115 258.765V279.823H-147.012V258.765L-168.183 237.593L-166.847 236.256L-146.064 257.039L-125.28 236.256L-123.944 237.593L-145.115 258.765ZM-145.115 200.018V221.076H-147.012V200.018L-168.183 178.846L-166.847 177.51L-146.064 198.293L-125.28 177.51L-123.944 178.846L-145.115 200.018V200.018ZM-145.115 141.272V162.33H-147.012V141.272L-168.183 120.1L-166.847 118.763L-146.064 139.546L-125.28 118.763L-123.944 120.1L-145.115 141.272ZM-145.115 82.5255V103.584H-147.012V82.5255L-168.183 61.3537L-166.847 60.0168L-146.064 80.7999L-125.28 60.0168L-123.944 61.3537L-145.115 82.5255ZM-145.115 23.7792V44.8372H-147.012V23.7507L-168.183 2.57892L-166.847 1.24205L-146.064 22.0251L-125.28 1.23257L-123.944 2.56944L-145.115 23.7413V23.7792ZM-96.9881 993.122V1014.18H-98.8844V993.122L-120.056 971.95L-118.719 970.614L-97.9363 991.397L-77.1532 970.614L-75.8163 971.95L-96.9881 993.122ZM-96.9881 934.376V955.434H-98.8844V934.376L-120.056 913.204L-118.719 911.867L-97.9363 932.65L-77.1532 911.867L-75.8163 913.204L-96.9881 934.376ZM-96.9881 875.63V896.688H-98.8844V875.63L-120.056 854.458L-118.719 853.121L-97.9363 873.904L-77.1532 853.121L-75.8163 854.458L-96.9881 875.63ZM-96.9881 816.883V837.941H-98.8844V816.883L-120.056 795.711L-118.719 794.375L-97.9363 815.158L-77.1532 794.375L-75.8163 795.711L-96.9881 816.883ZM-96.9881 758.137V779.195H-98.8844V758.137L-120.056 736.965L-118.719 735.628L-97.9363 756.411L-77.1532 735.628L-75.8163 736.965L-96.9881 758.137ZM-96.9881 699.391V720.449H-98.8844V699.391L-120.056 678.219L-118.719 676.882L-97.9363 697.665L-77.1532 676.882L-75.8163 678.219L-96.9881 699.391ZM-96.9881 640.644V661.702H-98.8844V640.644L-120.056 619.472L-118.719 618.136L-97.9363 638.919L-77.1532 618.136L-75.8163 619.472L-96.9881 640.644ZM-96.9881 581.898V602.956H-98.8844V581.898L-120.056 560.726L-118.719 559.389L-97.9363 580.172L-77.1532 559.389L-75.8163 560.726L-96.9881 581.898ZM-96.9881 523.152V544.21H-98.8844V523.152L-120.056 501.98L-118.719 500.643L-97.9363 521.426L-77.1532 500.643L-75.8163 501.98L-96.9881 523.152ZM-96.9881 464.405V485.463H-98.8844V464.405L-120.056 443.233L-118.719 441.896L-97.9363 462.68L-77.1532 441.896L-75.8163 443.233L-96.9881 464.405ZM-96.9881 405.659V426.717H-98.8844V405.659L-120.056 384.487L-118.719 383.15L-97.9363 403.933L-77.1532 383.15L-75.8163 384.487L-96.9881 405.659ZM-96.9881 346.913V367.971H-98.8844V346.913L-120.056 325.741L-118.719 324.404L-97.9363 345.187L-77.1532 324.404L-75.8163 325.741L-96.9881 346.913ZM-96.9881 288.166V309.224H-98.8844V288.166L-120.056 266.994L-118.719 265.657L-97.9363 286.441L-77.1532 265.657L-75.8163 266.994L-96.9881 288.166ZM-96.9881 229.42V250.478H-98.8844V229.42L-120.056 208.248L-118.719 206.911L-97.9363 227.694L-77.1532 206.911L-75.8163 208.248L-96.9881 229.42V229.42ZM-96.9881 170.673V191.732H-98.8844V170.673L-120.056 149.502L-118.719 148.165L-97.9363 168.948L-77.1532 148.165L-75.8163 149.502L-96.9881 170.673ZM-96.9881 111.927V132.985H-98.8844V111.927L-120.056 90.7553L-118.719 89.4184L-97.9363 110.202L-77.1532 89.4184L-75.8163 90.7553L-96.9881 111.927ZM-96.9881 53.1808V74.2388H-98.8844V53.1808L-120.056 32.009L-118.719 30.6721L-97.9363 51.4552L-77.1532 30.6721L-75.8163 32.009L-96.9881 53.1808ZM-48.8609 963.777V984.835H-50.7571V963.777L-71.929 942.606L-70.5921 941.269L-49.809 962.052L-29.0259 941.269L-27.6891 942.606L-48.8609 963.777V963.777ZM-48.8609 905.031V926.089H-50.7571V905.031L-71.929 883.859L-70.5921 882.522L-49.809 903.306L-29.0259 882.522L-27.6891 883.859L-48.8609 905.031V905.031ZM-48.8609 846.285V867.343H-50.7571V846.285L-71.929 825.113L-70.5921 823.776L-49.809 844.559L-29.0259 823.776L-27.6891 825.113L-48.8609 846.285V846.285ZM-48.8609 787.538V808.597H-50.7571V787.538L-71.929 766.367L-70.5921 765.03L-49.809 785.813L-29.0259 765.03L-27.6891 766.367L-48.8609 787.538V787.538ZM-48.8609 728.792V749.85H-50.7571V728.792L-71.929 707.62L-70.5921 706.283L-49.809 727.067L-29.0259 706.283L-27.6891 707.62L-48.8609 728.792V728.792ZM-48.8609 670.046V691.104H-50.7571V670.046L-71.929 648.874L-70.5921 647.537L-49.809 668.32L-29.0259 647.537L-27.6891 648.874L-48.8609 670.046V670.046ZM-48.8609 611.299V632.358H-50.7571V611.299L-71.929 590.128L-70.5921 588.791L-49.809 609.574L-29.0259 588.791L-27.6891 590.128L-48.8609 611.299V611.299ZM-48.8609 552.553V573.611H-50.7571V552.553L-71.929 531.381L-70.5921 530.044L-49.809 550.828L-29.0259 530.044L-27.6891 531.381L-48.8609 552.553V552.553ZM-48.8609 493.807V514.865H-50.7571V493.807L-71.929 472.635L-70.5921 471.298L-49.809 492.081L-29.0259 471.298L-27.6891 472.635L-48.8609 493.807V493.807ZM-48.8609 435.06V456.118H-50.7571V435.06L-71.929 413.889L-70.5921 412.552L-49.809 433.335L-29.0259 412.552L-27.6891 413.889L-48.8609 435.06V435.06ZM-48.8609 376.314V397.372H-50.7571V376.314L-71.929 355.142L-70.5921 353.805L-49.809 374.588L-29.0259 353.805L-27.6891 355.142L-48.8609 376.314V376.314ZM-48.8609 317.568V338.626H-50.7571V317.568L-71.929 296.396L-70.5921 295.059L-49.809 315.842L-29.0259 295.059L-27.6891 296.396L-48.8609 317.568V317.568ZM-48.8609 258.821V279.879H-50.7571V258.821L-71.929 237.65L-70.5921 236.313L-49.809 257.096L-29.0259 236.313L-27.6891 237.65L-48.8609 258.821V258.821ZM-48.8609 200.075V221.133H-50.7571V200.075L-71.929 178.903L-70.5921 177.566L-49.809 198.349L-29.0259 177.566L-27.6891 178.903L-48.8609 200.075V200.075ZM-48.8609 141.329V162.387H-50.7571V141.329L-71.929 120.157L-70.5921 118.82L-49.809 139.603L-29.0259 118.82L-27.6891 120.157L-48.8609 141.329V141.329ZM-48.8609 82.5824V103.64H-50.7571V82.5824L-71.929 61.4106L-70.5921 60.0737L-49.809 80.8568L-29.0259 60.0737L-27.6891 61.4106L-48.8609 82.5824V82.5824ZM-48.8609 23.8361V44.8941H-50.7571V23.7507L-71.929 2.57892L-70.5921 1.24205L-49.809 22.0251L-29.0259 1.23257L-27.6891 2.56944L-48.8609 23.7413V23.8361ZM-0.733625 993.179V1014.24H-2.62989V993.179L-23.8017 972.007L-22.4648 970.67L-1.68176 991.453L19.1013 970.67L20.4382 972.007L-0.733625 993.179V993.179ZM-0.733625 934.433V955.491H-2.62989V934.433L-23.8017 913.261L-22.4648 911.924L-1.68176 932.707L19.1013 911.924L20.4382 913.261L-0.733625 934.433V934.433ZM-0.733625 875.686V896.744H-2.62989V875.686L-23.8017 854.515L-22.4648 853.178L-1.68176 873.961L19.1013 853.178L20.4382 854.515L-0.733625 875.686V875.686ZM-0.733625 816.94V837.998H-2.62989V816.94L-23.8017 795.768L-22.4648 794.431L-1.68176 815.214L19.1013 794.431L20.4382 795.768L-0.733625 816.94V816.94ZM-0.733625 758.194V779.252H-2.62989V758.194L-23.8017 737.022L-22.4648 735.685L-1.68176 756.468L19.1013 735.685L20.4382 737.022L-0.733625 758.194V758.194ZM-0.733625 699.447V720.505H-2.62989V699.447L-23.8017 678.276L-22.4648 676.939L-1.68176 697.722L19.1013 676.939L20.4382 678.276L-0.733625 699.447V699.447ZM-0.733625 640.701V661.759H-2.62989V640.701L-23.8017 619.529L-22.4648 618.192L-1.68176 638.975L19.1013 618.192L20.4382 619.529L-0.733625 640.701V640.701ZM-0.733625 581.955V603.013H-2.62989V581.955L-23.8017 560.783L-22.4648 559.446L-1.68176 580.229L19.1013 559.446L20.4382 560.783L-0.733625 581.955V581.955ZM-0.733625 523.208V544.266H-2.62989V523.208L-23.8017 502.037L-22.4648 500.7L-1.68176 521.483L19.1013 500.7L20.4382 502.037L-0.733625 523.208V523.208ZM-0.733625 464.462V485.52H-2.62989V464.462L-23.8017 443.29L-22.4648 441.953L-1.68176 462.736L19.1013 441.953L20.4382 443.29L-0.733625 464.462V464.462ZM-0.733625 405.716V426.774H-2.62989V405.716L-23.8017 384.544L-22.4648 383.207L-1.68176 403.99L19.1013 383.207L20.4382 384.544L-0.733625 405.716V405.716ZM-0.733625 346.969V368.027H-2.62989V346.969L-23.8017 325.798L-22.4648 324.461L-1.68176 345.244L19.1013 324.461L20.4382 325.798L-0.733625 346.969V346.969ZM-0.733625 288.223V309.281H-2.62989V288.223L-23.8017 267.051L-22.4648 265.714L-1.68176 286.497L19.1013 265.714L20.4382 267.051L-0.733625 288.223V288.223ZM-0.733625 229.477V250.535H-2.62989V229.477L-23.8017 208.305L-22.4648 206.968L-1.68176 227.751L19.1013 206.968L20.4382 208.305L-0.733625 229.477V229.477ZM-0.733625 170.73V191.788H-2.62989V170.73L-23.8017 149.559L-22.4648 148.222L-1.68176 169.005L19.1013 148.222L20.4382 149.559L-0.733625 170.73V170.73ZM-0.733625 111.984V133.042H-2.62989V111.984L-23.8017 90.8122L-22.4648 89.4753L-1.68176 110.258L19.1013 89.4753L20.4382 90.8122L-0.733625 111.984V111.984ZM-0.733625 53.2377V74.2957H-2.62989V53.2377L-23.8017 32.0659L-22.4648 30.729L-1.68176 51.5121L19.1013 30.729L20.4382 32.0659L-0.733625 53.2377V53.2377ZM47.3936 963.834V984.892H45.4974V963.834L24.3255 942.663L25.6624 941.326L46.4455 962.109L67.2286 941.326L68.5655 942.663L47.3936 963.834V963.834ZM47.3936 905.088V926.146H45.4974V905.088L24.3255 883.916L25.6624 882.579L46.4455 903.362L67.2286 882.579L68.5655 883.916L47.3936 905.088V905.088ZM47.3936 846.342V867.4H45.4974V846.342L24.3255 825.17L25.6624 823.833L46.4455 844.616L67.2286 823.833L68.5655 825.17L47.3936 846.342V846.342ZM47.3936 787.595V808.653H45.4974V787.595L24.3255 766.424L25.6624 765.087L46.4455 785.87L67.2286 765.087L68.5655 766.424L47.3936 787.595V787.595ZM47.3936 728.849V749.907H45.4974V728.849L24.3255 707.677L25.6624 706.34L46.4455 727.123L67.2286 706.34L68.5655 707.677L47.3936 728.849V728.849ZM47.3936 670.103V691.161H45.4974V670.103L24.3255 648.931L25.6624 647.594L46.4455 668.377L67.2286 647.594L68.5655 648.931L47.3936 670.103V670.103ZM47.3936 611.356V632.414H45.4974V611.356L24.3255 590.185L25.6624 588.848L46.4455 609.631L67.2286 588.848L68.5655 590.185L47.3936 611.356V611.356ZM47.3936 552.61V573.668H45.4974V552.61L24.3255 531.438L25.6624 530.101L46.4455 550.884L67.2286 530.101L68.5655 531.438L47.3936 552.61V552.61ZM47.3936 493.864V514.922H45.4974V493.864L24.3255 472.692L25.6624 471.355L46.4455 492.138L67.2286 471.355L68.5655 472.692L47.3936 493.864V493.864ZM47.3936 435.117V456.175H45.4974V435.117L24.3255 413.946L25.6624 412.609L46.4455 433.392L67.2286 412.609L68.5655 413.946L47.3936 435.117V435.117ZM47.3936 376.371V397.429H45.4974V376.371L24.3255 355.199L25.6624 353.862L46.4455 374.645L67.2286 353.862L68.5655 355.199L47.3936 376.371V376.371ZM47.3936 317.625V338.683H45.4974V317.625L24.3255 296.453L25.6624 295.116L46.4455 315.899L67.2286 295.116L68.5655 296.453L47.3936 317.625V317.625ZM47.3936 258.878V279.936H45.4974V258.878L24.3255 237.707L25.6624 236.37L46.4455 257.153L67.2286 236.37L68.5655 237.707L47.3936 258.878V258.878ZM47.3936 200.132V221.19H45.4974V200.132L24.3255 178.96L25.6624 177.623L46.4455 198.406L67.2286 177.623L68.5655 178.96L47.3936 200.132V200.132ZM47.3936 141.386V162.444H45.4974V141.386L24.3255 120.214L25.6624 118.877L46.4455 139.66L67.2286 118.877L68.5655 120.214L47.3936 141.386V141.386ZM47.3936 82.6393V103.697H45.4974V82.6393L24.3255 61.4675L25.6624 60.1306L46.4455 80.9137L67.2286 60.1306L68.5655 61.4675L47.3936 82.6393V82.6393ZM47.3936 23.893V44.951H45.4974V23.7507L24.3161 2.57892L25.6529 1.24205L46.436 22.0251L67.2286 1.23257L68.5655 2.56944L47.3936 23.7413V23.893ZM95.5209 993.236V1014.29H93.6246V993.236L72.4528 972.064L73.7897 970.727L94.5728 991.51L115.356 970.727L116.693 972.064L95.5209 993.236V993.236ZM95.5209 934.49V955.548H93.6246V934.49L72.4528 913.318L73.7897 911.981L94.5728 932.764L115.356 911.981L116.693 913.318L95.5209 934.49V934.49ZM95.5209 875.743V896.801H93.6246V875.743L72.4528 854.572L73.7897 853.235L94.5728 874.018L115.356 853.235L116.693 854.572L95.5209 875.743V875.743ZM95.5209 816.997V838.055H93.6246V816.997L72.4528 795.825L73.7897 794.488L94.5728 815.271L115.356 794.488L116.693 795.825L95.5209 816.997V816.997ZM95.5209 758.251V779.309H93.6246V758.251L72.4528 737.079L73.7897 735.742L94.5728 756.525L115.356 735.742L116.693 737.079L95.5209 758.251V758.251ZM95.5209 699.504V720.562H93.6246V699.504L72.4528 678.332L73.7897 676.996L94.5728 697.779L115.356 676.996L116.693 678.332L95.5209 699.504V699.504ZM95.5209 640.758V661.816H93.6246V640.758L72.4528 619.586L73.7897 618.249L94.5728 639.032L115.356 618.249L116.693 619.586L95.5209 640.758V640.758ZM95.5209 582.012V603.07H93.6246V582.012L72.4528 560.84L73.7897 559.503L94.5728 580.286L115.356 559.503L116.693 560.84L95.5209 582.012V582.012ZM95.5209 523.265V544.323H93.6246V523.265L72.4528 502.093L73.7897 500.757L94.5728 521.54L115.356 500.757L116.693 502.093L95.5209 523.265V523.265ZM95.5209 464.519V485.577H93.6246V464.519L72.4528 443.347L73.7897 442.01L94.5728 462.793L115.356 442.01L116.693 443.347L95.5209 464.519V464.519ZM95.5209 405.773V426.831H93.6246V405.773L72.4528 384.601L73.7897 383.264L94.5728 404.047L115.356 383.264L116.693 384.601L95.5209 405.773V405.773ZM95.5209 347.026V368.084H93.6246V347.026L72.4528 325.854L73.7897 324.518L94.5728 345.301L115.356 324.518L116.693 325.854L95.5209 347.026V347.026ZM95.5209 288.28V309.338H93.6246V288.28L72.4528 267.108L73.7897 265.771L94.5728 286.554L115.356 265.771L116.693 267.108L95.5209 288.28V288.28ZM95.5209 229.534V250.592H93.6246V229.534L72.4528 208.362L73.7897 207.025L94.5728 227.808L115.356 207.025L116.693 208.362L95.5209 229.534V229.534ZM95.5209 170.787V191.845H93.6246V170.787L72.4528 149.615L73.7897 148.279L94.5728 169.062L115.356 148.279L116.693 149.615L95.5209 170.787V170.787ZM95.5209 112.041V133.099H93.6246V112.041L72.4528 90.8691L73.7897 89.5322L94.5728 110.315L115.356 89.5322L116.693 90.8691L95.5209 112.041V112.041ZM95.5209 53.2946V74.3526H93.6246V53.2946L72.4528 32.1228L73.7897 30.7859L94.5728 51.569L115.356 30.7859L116.693 32.1228L95.5209 53.2946V53.2946ZM143.648 963.891V984.949H141.752V963.891L120.58 942.719L121.917 941.383L142.7 962.166L163.483 941.383L164.82 942.719L143.648 963.891V963.891ZM143.648 905.145V926.203H141.752V905.145L120.58 883.973L121.917 882.636L142.7 903.419L163.483 882.636L164.82 883.973L143.648 905.145V905.145ZM143.648 846.399V867.457H141.752V846.399L120.58 825.227L121.917 823.89L142.7 844.673L163.483 823.89L164.82 825.227L143.648 846.399V846.399ZM143.648 787.652V808.71H141.752V787.652L120.58 766.48L121.917 765.144L142.7 785.927L163.483 765.144L164.82 766.48L143.648 787.652V787.652ZM143.648 728.906V749.964H141.752V728.906L120.58 707.734L121.917 706.397L142.7 727.18L163.483 706.397L164.82 707.734L143.648 728.906V728.906ZM143.648 670.16V691.218H141.752V670.16L120.58 648.988L121.917 647.651L142.7 668.434L163.483 647.651L164.82 648.988L143.648 670.16V670.16ZM143.648 611.413V632.471H141.752V611.413L120.58 590.241L121.917 588.905L142.7 609.688L163.483 588.905L164.82 590.241L143.648 611.413V611.413ZM143.648 552.667V573.725H141.752V552.667L120.58 531.495L121.917 530.158L142.7 550.941L163.483 530.158L164.82 531.495L143.648 552.667V552.667ZM143.648 493.921V514.979H141.752V493.921L120.58 472.749L121.917 471.412L142.7 492.195L163.483 471.412L164.82 472.749L143.648 493.921V493.921ZM143.648 435.174V456.232H141.752V435.174L120.58 414.002L121.917 412.666L142.7 433.449L163.483 412.666L164.82 414.002L143.648 435.174V435.174ZM143.648 376.428V397.486H141.752V376.428L120.58 355.256L121.917 353.919L142.7 374.702L163.483 353.919L164.82 355.256L143.648 376.428V376.428ZM143.648 317.682V338.74H141.752V317.682L120.58 296.51L121.917 295.173L142.7 315.956L163.483 295.173L164.82 296.51L143.648 317.682V317.682ZM143.648 258.935V279.993H141.752V258.935L120.58 237.763L121.917 236.427L142.7 257.21L163.483 236.427L164.82 237.763L143.648 258.935V258.935ZM143.648 200.189V221.247H141.752V200.189L120.58 179.017L121.917 177.68L142.7 198.463L163.483 177.68L164.82 179.017L143.648 200.189V200.189ZM143.648 141.443V162.501H141.752V141.443L120.58 120.271L121.917 118.934L142.7 139.717L163.483 118.934L164.82 120.271L143.648 141.443V141.443ZM143.648 82.6962V103.754H141.752V82.6962L120.58 61.5244L121.917 60.1875L142.7 80.9706L163.483 60.1875L164.82 61.5244L143.648 82.6962V82.6962ZM143.648 23.9498V45.0079H141.752V23.7507L120.58 2.57892L121.917 1.24205L142.7 22.0251L163.483 1.23257L164.82 2.56944L143.648 23.7413V23.9498ZM191.775 993.293V1014.35H189.879V993.293L168.707 972.121L170.044 970.784L190.827 991.567L211.61 970.784L212.947 972.121L191.775 993.293V993.293ZM191.775 934.547V955.605H189.879V934.547L168.707 913.375L170.044 912.038L190.827 932.821L211.61 912.038L212.947 913.375L191.775 934.547V934.547ZM191.775 875.8V896.858H189.879V875.8L168.707 854.628L170.044 853.291L190.827 874.075L211.61 853.291L212.947 854.628L191.775 875.8V875.8ZM191.775 817.054V838.112H189.879V817.054L168.707 795.882L170.044 794.545L190.827 815.328L211.61 794.545L212.947 795.882L191.775 817.054V817.054ZM191.775 758.308V779.366H189.879V758.308L168.707 737.136L170.044 735.799L190.827 756.582L211.61 735.799L212.947 737.136L191.775 758.308V758.308ZM191.775 699.561V720.619H189.879V699.561L168.707 678.389L170.044 677.053L190.827 697.836L211.61 677.053L212.947 678.389L191.775 699.561V699.561ZM191.775 640.815V661.873H189.879V640.815L168.707 619.643L170.044 618.306L190.827 639.089L211.61 618.306L212.947 619.643L191.775 640.815V640.815ZM191.775 582.068V603.127H189.879V582.068L168.707 560.897L170.044 559.56L190.827 580.343L211.61 559.56L212.947 560.897L191.775 582.068V582.068ZM191.775 523.322V544.38H189.879V523.322L168.707 502.15L170.044 500.814L190.827 521.597L211.61 500.814L212.947 502.15L191.775 523.322V523.322ZM191.775 464.576V485.634H189.879V464.576L168.707 443.404L170.044 442.067L190.827 462.85L211.61 442.067L212.947 443.404L191.775 464.576V464.576ZM191.775 405.829V426.888H189.879V405.829L168.707 384.658L170.044 383.321L190.827 404.104L211.61 383.321L212.947 384.658L191.775 405.829V405.829ZM191.775 347.083V368.141H189.879V347.083L168.707 325.911L170.044 324.574L190.827 345.358L211.61 324.574L212.947 325.911L191.775 347.083V347.083ZM191.775 288.337V309.395H189.879V288.337L168.707 267.165L170.044 265.828L190.827 286.611L211.61 265.828L212.947 267.165L191.775 288.337V288.337ZM191.775 229.59V250.649H189.879V229.59L168.707 208.419L170.044 207.082L190.827 227.865L211.61 207.082L212.947 208.419L191.775 229.59V229.59ZM191.775 170.844V191.902H189.879V170.844L168.707 149.672L170.044 148.335L190.827 169.119L211.61 148.335L212.947 149.672L191.775 170.844V170.844ZM191.775 112.098V133.156H189.879V112.098L168.707 90.926L170.044 89.5891L190.827 110.372L211.61 89.5891L212.947 90.926L191.775 112.098V112.098ZM191.775 53.3515V74.4095H189.879V53.3515L168.707 32.1796L170.044 30.8428L190.827 51.6259L211.61 30.8428L212.947 32.1796L191.775 53.3515V53.3515ZM239.903 963.948V985.006H238.006V963.948L216.835 942.776L218.171 941.439L238.955 962.223L259.738 941.439L261.074 942.776L239.903 963.948V963.948ZM239.903 905.202V926.26H238.006V905.202L216.835 884.03L218.171 882.693L238.955 903.476L259.738 882.693L261.074 884.03L239.903 905.202V905.202ZM239.903 846.455V867.513H238.006V846.455L216.835 825.284L218.171 823.947L238.955 844.73L259.738 823.947L261.074 825.284L239.903 846.455V846.455ZM239.903 787.709V808.767H238.006V787.709L216.835 766.537L218.171 765.2L238.955 785.984L259.738 765.2L261.074 766.537L239.903 787.709V787.709ZM239.903 728.963V750.021H238.006V728.963L216.835 707.791L218.171 706.454L238.955 727.237L259.738 706.454L261.074 707.791L239.903 728.963V728.963ZM239.903 670.216V691.275H238.006V670.216L216.835 649.045L218.171 647.708L238.955 668.491L259.738 647.708L261.074 649.045L239.903 670.216V670.216ZM239.903 611.47V632.528H238.006V611.47L216.835 590.298L218.171 588.961L238.955 609.744L259.738 588.961L261.074 590.298L239.903 611.47V611.47ZM239.903 552.724V573.782H238.006V552.724L216.835 531.552L218.171 530.215L238.955 550.998L259.738 530.215L261.074 531.552L239.903 552.724V552.724ZM239.903 493.977V515.036H238.006V493.977L216.835 472.806L218.171 471.469L238.955 492.252L259.738 471.469L261.074 472.806L239.903 493.977V493.977ZM239.903 435.231V456.289H238.006V435.231L216.835 414.059L218.171 412.722L238.955 433.506L259.738 412.722L261.074 414.059L239.903 435.231V435.231ZM239.903 376.485V397.543H238.006V376.485L216.835 355.313L218.171 353.976L238.955 374.759L259.738 353.976L261.074 355.313L239.903 376.485V376.485ZM239.903 317.738V338.796H238.006V317.738L216.835 296.567L218.171 295.23L238.955 316.013L259.738 295.23L261.074 296.567L239.903 317.738V317.738ZM239.903 258.992V280.05H238.006V258.992L216.835 237.82L218.171 236.483L238.955 257.266L259.738 236.483L261.074 237.82L239.903 258.992V258.992ZM239.903 200.246V221.304H238.006V200.246L216.835 179.074L218.171 177.737L238.955 198.52L259.738 177.737L261.074 179.074L239.903 200.246V200.246ZM239.903 141.499V162.557H238.006V141.499L216.835 120.328L218.171 118.991L238.955 139.774L259.738 118.991L261.074 120.328L239.903 141.499V141.499ZM239.903 82.7531V103.811H238.006V82.7531L216.835 61.5813L218.171 60.2444L238.955 81.0275L259.738 60.2444L261.074 61.5813L239.903 82.7531V82.7531ZM239.903 24.0067V45.0648H238.006V23.7507L216.835 2.57892L218.171 1.24205L238.955 22.0251L259.738 1.23257L261.074 2.56944L239.903 23.7413V24.0067ZM288.03 993.35V1014.41H286.134V993.35L264.962 972.178L266.299 970.841L287.082 991.624L307.865 970.841L309.202 972.178L288.03 993.35V993.35ZM288.03 934.603V955.661H286.134V934.603L264.962 913.432L266.299 912.095L287.082 932.878L307.865 912.095L309.202 913.432L288.03 934.603V934.603ZM288.03 875.857V896.915H286.134V875.857L264.962 854.685L266.299 853.348L287.082 874.131L307.865 853.348L309.202 854.685L288.03 875.857V875.857ZM288.03 817.111V838.169H286.134V817.111L264.962 795.939L266.299 794.602L287.082 815.385L307.865 794.602L309.202 795.939L288.03 817.111V817.111ZM288.03 758.364V779.422H286.134V758.364L264.962 737.193L266.299 735.856L287.082 756.639L307.865 735.856L309.202 737.193L288.03 758.364V758.364ZM288.03 699.618V720.676H286.134V699.618L264.962 678.446L266.299 677.109L287.082 697.892L307.865 677.109L309.202 678.446L288.03 699.618V699.618ZM288.03 640.872V661.93H286.134V640.872L264.962 619.7L266.299 618.363L287.082 639.146L307.865 618.363L309.202 619.7L288.03 640.872V640.872ZM288.03 582.125V603.183H286.134V582.125L264.962 560.954L266.299 559.617L287.082 580.4L307.865 559.617L309.202 560.954L288.03 582.125V582.125ZM288.03 523.379V544.437H286.134V523.379L264.962 502.207L266.299 500.87L287.082 521.653L307.865 500.87L309.202 502.207L288.03 523.379V523.379ZM288.03 464.633V485.691H286.134V464.633L264.962 443.461L266.299 442.124L287.082 462.907L307.865 442.124L309.202 443.461L288.03 464.633V464.633ZM288.03 405.886V426.944H286.134V405.886L264.962 384.715L266.299 383.378L287.082 404.161L307.865 383.378L309.202 384.715L288.03 405.886V405.886ZM288.03 347.14V368.198H286.134V347.14L264.962 325.968L266.299 324.631L287.082 345.414L307.865 324.631L309.202 325.968L288.03 347.14V347.14ZM288.03 288.394V309.452H286.134V288.394L264.962 267.222L266.299 265.885L287.082 286.668L307.865 265.885L309.202 267.222L288.03 288.394V288.394ZM288.03 229.647V250.705H286.134V229.647L264.962 208.476L266.299 207.139L287.082 227.922L307.865 207.139L309.202 208.476L288.03 229.647V229.647ZM288.03 170.901V191.959H286.134V170.901L264.962 149.729L266.299 148.392L287.082 169.175L307.865 148.392L309.202 149.729L288.03 170.901V170.901ZM288.03 112.155V133.213H286.134V112.155L264.962 90.9829L266.299 89.646L287.082 110.429L307.865 89.646L309.202 90.9829L288.03 112.155V112.155ZM288.03 53.4083V74.4664H286.134V53.4083L264.962 32.2365L266.299 30.8997L287.082 51.6827L307.865 30.8997L309.202 32.2365L288.03 53.4083V53.4083ZM336.157 964.005V985.063H334.261V964.005L313.089 942.833L314.426 941.496L335.209 962.279L355.992 941.496L357.329 942.833L336.157 964.005V964.005ZM336.157 905.259V926.317H334.261V905.259L313.089 884.087L314.426 882.75L335.209 903.533L355.992 882.75L357.329 884.087L336.157 905.259V905.259ZM336.157 846.512V867.57H334.261V846.512L313.089 825.341L314.426 824.004L335.209 844.787L355.992 824.004L357.329 825.341L336.157 846.512V846.512ZM336.157 787.766V808.824H334.261V787.766L313.089 766.594L314.426 765.257L335.209 786.04L355.992 765.257L357.329 766.594L336.157 787.766V787.766ZM336.157 729.02V750.078H334.261V729.02L313.089 707.848L314.426 706.511L335.209 727.294L355.992 706.511L357.329 707.848L336.157 729.02V729.02ZM336.157 670.273V691.331H334.261V670.273L313.089 649.102L314.426 647.765L335.209 668.548L355.992 647.765L357.329 649.102L336.157 670.273V670.273ZM336.157 611.527V632.585H334.261V611.527L313.089 590.355L314.426 589.018L335.209 609.801L355.992 589.018L357.329 590.355L336.157 611.527V611.527ZM336.157 552.781V573.839H334.261V552.781L313.089 531.609L314.426 530.272L335.209 551.055L355.992 530.272L357.329 531.609L336.157 552.781V552.781ZM336.157 494.034V515.092H334.261V494.034L313.089 472.863L314.426 471.526L335.209 492.309L355.992 471.526L357.329 472.863L336.157 494.034V494.034ZM336.157 435.288V456.346H334.261V435.288L313.089 414.116L314.426 412.779L335.209 433.562L355.992 412.779L357.329 414.116L336.157 435.288V435.288ZM336.157 376.542V397.6H334.261V376.542L313.089 355.37L314.426 354.033L335.209 374.816L355.992 354.033L357.329 355.37L336.157 376.542V376.542ZM336.157 317.795V338.853H334.261V317.795L313.089 296.624L314.426 295.287L335.209 316.07L355.992 295.287L357.329 296.624L336.157 317.795V317.795ZM336.157 259.049V280.107H334.261V259.049L313.089 237.877L314.426 236.54L335.209 257.323L355.992 236.54L357.329 237.877L336.157 259.049V259.049ZM336.157 200.303V221.361H334.261V200.303L313.089 179.131L314.426 177.794L335.209 198.577L355.992 177.794L357.329 179.131L336.157 200.303V200.303ZM336.157 141.556V162.614H334.261V141.556L313.089 120.384L314.426 119.048L335.209 139.831L355.992 119.048L357.329 120.384L336.157 141.556V141.556ZM336.157 82.81V103.868H334.261V82.81L313.089 61.6381L314.426 60.3013L335.209 81.0844L355.992 60.3013L357.329 61.6381L336.157 82.81V82.81ZM336.157 24.0636V45.1217H334.261V23.7507L313.089 2.57892L314.426 1.24205L335.209 22.0251L355.992 1.24205L357.329 2.57892L336.157 23.7507V24.0636ZM384.284 993.407V1014.46H382.388V993.407L361.216 972.235L362.553 970.898L383.336 991.681L404.119 970.898L405.456 972.235L384.284 993.407V993.407ZM384.284 934.66V955.718H382.388V934.66L361.216 913.489L362.553 912.152L383.336 932.935L404.119 912.152L405.456 913.489L384.284 934.66V934.66ZM384.284 875.914V896.972H382.388V875.914L361.216 854.742L362.553 853.405L383.336 874.188L404.119 853.405L405.456 854.742L384.284 875.914V875.914ZM384.284 817.168V838.226H382.388V817.168L361.216 795.996L362.553 794.659L383.336 815.442L404.119 794.659L405.456 795.996L384.284 817.168V817.168ZM384.284 758.421V779.479H382.388V758.421L361.216 737.249L362.553 735.913L383.336 756.696L404.119 735.913L405.456 737.249L384.284 758.421V758.421ZM384.284 699.675V720.733H382.388V699.675L361.216 678.503L362.553 677.166L383.336 697.949L404.119 677.166L405.456 678.503L384.284 699.675V699.675ZM384.284 640.929V661.987H382.388V640.929L361.216 619.757L362.553 618.42L383.336 639.203L404.119 618.42L405.456 619.757L384.284 640.929V640.929ZM384.284 582.182V603.24H382.388V582.182L361.216 561.01L362.553 559.674L383.336 580.457L404.119 559.674L405.456 561.01L384.284 582.182V582.182ZM384.284 523.436V544.494H382.388V523.436L361.216 502.264L362.553 500.927L383.336 521.71L404.119 500.927L405.456 502.264L384.284 523.436V523.436ZM384.284 464.69V485.748H382.388V464.69L361.216 443.518L362.553 442.181L383.336 462.964L404.119 442.181L405.456 443.518L384.284 464.69V464.69ZM384.284 405.943V427.001H382.388V405.943L361.216 384.771L362.553 383.435L383.336 404.218L404.119 383.435L405.456 384.771L384.284 405.943V405.943ZM384.284 347.197V368.255H382.388V347.197L361.216 326.025L362.553 324.688L383.336 345.471L404.119 324.688L405.456 326.025L384.284 347.197V347.197ZM384.284 288.451V309.509H382.388V288.451L361.216 267.279L362.553 265.942L383.336 286.725L404.119 265.942L405.456 267.279L384.284 288.451V288.451ZM384.284 229.704V250.762H382.388V229.704L361.216 208.532L362.553 207.196L383.336 227.979L404.119 207.196L405.456 208.532L384.284 229.704V229.704ZM384.284 170.958V192.016H382.388V170.958L361.216 149.786L362.553 148.449L383.336 169.232L404.119 148.449L405.456 149.786L384.284 170.958V170.958ZM384.284 112.212V133.27H382.388V112.212L361.216 91.0398L362.553 89.7029L383.336 110.486L404.119 89.7029L405.456 91.0398L384.284 112.212V112.212ZM384.284 53.4652V74.5233H382.388V53.4652L361.216 32.2934L362.553 30.9566L383.336 51.7396L404.119 30.9566L405.456 32.2934L384.284 53.4652V53.4652ZM432.412 964.062V985.12H430.515V964.062L409.344 942.89L410.68 941.553L431.464 962.336L452.247 941.553L453.583 942.89L432.412 964.062V964.062ZM432.412 905.316V926.374H430.515V905.316L409.344 884.144L410.68 882.807L431.464 903.59L452.247 882.807L453.583 884.144L432.412 905.316V905.316ZM432.412 846.569V867.627H430.515V846.569L409.344 825.397L410.68 824.061L431.464 844.844L452.247 824.061L453.583 825.397L432.412 846.569V846.569ZM432.412 787.823V808.881H430.515V787.823L409.344 766.651L410.68 765.314L431.464 786.097L452.247 765.314L453.583 766.651L432.412 787.823V787.823ZM432.412 729.077V750.135H430.515V729.077L409.344 707.905L410.68 706.568L431.464 727.351L452.247 706.568L453.583 707.905L432.412 729.077V729.077ZM432.412 670.33V691.388H430.515V670.33L409.344 649.158L410.68 647.822L431.464 668.605L452.247 647.822L453.583 649.158L432.412 670.33V670.33ZM432.412 611.584V632.642H430.515V611.584L409.344 590.412L410.68 589.075L431.464 609.858L452.247 589.075L453.583 590.412L432.412 611.584V611.584ZM432.412 552.838V573.896H430.515V552.838L409.344 531.666L410.68 530.329L431.464 551.112L452.247 530.329L453.583 531.666L432.412 552.838V552.838ZM432.412 494.091V515.149H430.515V494.091L409.344 472.919L410.68 471.583L431.464 492.366L452.247 471.583L453.583 472.919L432.412 494.091V494.091ZM432.412 435.345V456.403H430.515V435.345L409.344 414.173L410.68 412.836L431.464 433.619L452.247 412.836L453.583 414.173L432.412 435.345V435.345ZM432.412 376.599V397.657H430.515V376.599L409.344 355.427L410.68 354.09L431.464 374.873L452.247 354.09L453.583 355.427L432.412 376.599V376.599ZM432.412 317.852V338.91H430.515V317.852L409.344 296.68L410.68 295.344L431.464 316.127L452.247 295.344L453.583 296.68L432.412 317.852V317.852ZM432.412 259.106V280.164H430.515V259.106L409.344 237.934L410.68 236.597L431.464 257.38L452.247 236.597L453.583 237.934L432.412 259.106V259.106ZM432.412 200.36V221.418H430.515V200.36L409.344 179.188L410.68 177.851L431.464 198.634L452.247 177.851L453.583 179.188L432.412 200.36V200.36ZM432.412 141.613V162.671H430.515V141.613L409.344 120.441L410.68 119.105L431.464 139.888L452.247 119.105L453.583 120.441L432.412 141.613V141.613ZM432.412 82.8669V103.925H430.515V82.8669L409.344 61.695L410.68 60.3582L431.464 81.1412L452.247 60.3582L453.583 61.695L432.412 82.8669V82.8669ZM432.412 24.1205V45.1786H430.515V23.7507L409.344 2.57892L410.68 1.24205L431.464 22.0251L452.247 1.24205L453.583 2.57892L432.412 23.7507V24.1205ZM480.539 993.464V1014.52H478.643V993.464L457.471 972.292L458.808 970.955L479.591 991.738L500.374 970.955L501.711 972.292L480.539 993.464V993.464ZM480.539 934.717V955.775H478.643V934.717L457.471 913.545L458.808 912.209L479.591 932.992L500.374 912.209L501.711 913.545L480.539 934.717V934.717ZM480.539 875.971V897.029H478.643V875.971L457.471 854.799L458.808 853.462L479.591 874.245L500.374 853.462L501.711 854.799L480.539 875.971V875.971ZM480.539 817.225V838.283H478.643V817.225L457.471 796.053L458.808 794.716L479.591 815.499L500.374 794.716L501.711 796.053L480.539 817.225V817.225ZM480.539 758.478V779.536H478.643V758.478L457.471 737.306L458.808 735.969L479.591 756.753L500.374 735.969L501.711 737.306L480.539 758.478V758.478ZM480.539 699.732V720.79H478.643V699.732L457.471 678.56L458.808 677.223L479.591 698.006L500.374 677.223L501.711 678.56L480.539 699.732V699.732ZM480.539 640.985V662.044H478.643V640.985L457.471 619.814L458.808 618.477L479.591 639.26L500.374 618.477L501.711 619.814L480.539 640.985V640.985ZM480.539 582.239V603.297H478.643V582.239L457.471 561.067L458.808 559.73L479.591 580.514L500.374 559.73L501.711 561.067L480.539 582.239V582.239ZM480.539 523.493V544.551H478.643V523.493L457.471 502.321L458.808 500.984L479.591 521.767L500.374 500.984L501.711 502.321L480.539 523.493V523.493ZM480.539 464.747V485.805H478.643V464.747L457.471 443.575L458.808 442.238L479.591 463.021L500.374 442.238L501.711 443.575L480.539 464.747V464.747ZM480.539 406V427.058H478.643V406L457.471 384.828L458.808 383.491L479.591 404.275L500.374 383.491L501.711 384.828L480.539 406V406ZM480.539 347.254V368.312H478.643V347.254L457.471 326.082L458.808 324.745L479.591 345.528L500.374 324.745L501.711 326.082L480.539 347.254V347.254ZM480.539 288.507V309.566H478.643V288.507L457.471 267.336L458.808 265.999L479.591 286.782L500.374 265.999L501.711 267.336L480.539 288.507V288.507ZM480.539 229.761V250.819H478.643V229.761L457.471 208.589L458.808 207.252L479.591 228.036L500.374 207.252L501.711 208.589L480.539 229.761V229.761ZM480.539 171.015V192.073H478.643V171.015L457.471 149.843L458.808 148.506L479.591 169.289L500.374 148.506L501.711 149.843L480.539 171.015V171.015ZM480.539 112.268V133.326H478.643V112.268L457.471 91.0966L458.808 89.7598L479.591 110.543L500.374 89.7598L501.711 91.0966L480.539 112.268V112.268ZM480.539 53.5221V74.5802H478.643V53.5221L457.471 32.3503L458.808 31.0134L479.591 51.7965L500.374 31.0134L501.711 32.3503L480.539 53.5221V53.5221ZM528.666 964.119V985.177H526.77V964.119L505.598 942.947L506.935 941.61L527.718 962.393L548.501 941.61L549.838 942.947L528.666 964.119V964.119ZM528.666 905.373V926.431H526.77V905.373L505.598 884.201L506.935 882.864L527.718 903.647L548.501 882.864L549.838 884.201L528.666 905.373V905.373ZM528.666 846.626V867.684H526.77V846.626L505.598 825.454L506.935 824.117L527.718 844.901L548.501 824.117L549.838 825.454L528.666 846.626V846.626ZM528.666 787.88V808.938H526.77V787.88L505.598 766.708L506.935 765.371L527.718 786.154L548.501 765.371L549.838 766.708L528.666 787.88V787.88ZM528.666 729.133V750.191H526.77V729.133L505.598 707.962L506.935 706.625L527.718 727.408L548.501 706.625L549.838 707.962L528.666 729.133V729.133ZM528.666 670.387V691.445H526.77V670.387L505.598 649.215L506.935 647.878L527.718 668.662L548.501 647.878L549.838 649.215L528.666 670.387V670.387ZM528.666 611.641V632.699H526.77V611.641L505.598 590.469L506.935 589.132L527.718 609.915L548.501 589.132L549.838 590.469L528.666 611.641V611.641ZM528.666 552.894V573.952H526.77V552.894L505.598 531.723L506.935 530.386L527.718 551.169L548.501 530.386L549.838 531.723L528.666 552.894V552.894ZM528.666 494.148V515.206H526.77V494.148L505.598 472.976L506.935 471.639L527.718 492.422L548.501 471.639L549.838 472.976L528.666 494.148V494.148ZM528.666 435.402V456.46H526.77V435.402L505.598 414.23L506.935 412.893L527.718 433.676L548.501 412.893L549.838 414.23L528.666 435.402V435.402ZM528.666 376.655V397.713H526.77V376.655L505.598 355.484L506.935 354.147L527.718 374.93L548.501 354.147L549.838 355.484L528.666 376.655V376.655ZM528.666 317.909V338.967H526.77V317.909L505.598 296.737L506.935 295.4L527.718 316.183L548.501 295.4L549.838 296.737L528.666 317.909V317.909ZM528.666 259.163V280.221H526.77V259.163L505.598 237.991L506.935 236.654L527.718 257.437L548.501 236.654L549.838 237.991L528.666 259.163V259.163ZM528.666 200.416V221.474H526.77V200.416L505.598 179.245L506.935 177.908L527.718 198.691L548.501 177.908L549.838 179.245L528.666 200.416V200.416ZM528.666 141.67V162.728H526.77V141.67L505.598 120.498L506.935 119.161L527.718 139.944L548.501 119.161L549.838 120.498L528.666 141.67V141.67ZM528.666 82.9237V103.982H526.77V82.9237L505.598 61.7519L506.935 60.4151L527.718 81.1981L548.501 60.4151L549.838 61.7519L528.666 82.9237V82.9237ZM528.666 24.1774V45.2354H526.77V23.7507L505.598 2.57892L506.935 1.24205L527.718 22.0251L548.501 1.24205L549.838 2.57892L528.666 23.7507V24.1774ZM576.793 993.52V1014.58H574.897V993.52L553.725 972.349L555.062 971.012L575.845 991.795L596.628 971.012L597.965 972.349L576.793 993.52V993.52ZM576.793 934.774V955.832H574.897V934.774L553.725 913.602L555.062 912.265L575.845 933.049L596.628 912.265L597.965 913.602L576.793 934.774V934.774ZM576.793 876.028V897.086H574.897V876.028L553.725 854.856L555.062 853.519L575.845 874.302L596.628 853.519L597.965 854.856L576.793 876.028V876.028ZM576.793 817.281V838.339H574.897V817.281L553.725 796.11L555.062 794.773L575.845 815.556L596.628 794.773L597.965 796.11L576.793 817.281V817.281ZM576.793 758.535V779.593H574.897V758.535L553.725 737.363L555.062 736.026L575.845 756.809L596.628 736.026L597.965 737.363L576.793 758.535V758.535ZM576.793 699.789V720.847H574.897V699.789L553.725 678.617L555.062 677.28L575.845 698.063L596.628 677.28L597.965 678.617L576.793 699.789V699.789ZM576.793 641.042V662.1H574.897V641.042L553.725 619.871L555.062 618.534L575.845 639.317L596.628 618.534L597.965 619.871L576.793 641.042V641.042ZM576.793 582.296V603.354H574.897V582.296L553.725 561.124L555.062 559.787L575.845 580.57L596.628 559.787L597.965 561.124L576.793 582.296V582.296ZM576.793 523.55V544.608H574.897V523.55L553.725 502.378L555.062 501.041L575.845 521.824L596.628 501.041L597.965 502.378L576.793 523.55V523.55ZM576.793 464.803V485.861H574.897V464.803L553.725 443.632L555.062 442.295L575.845 463.078L596.628 442.295L597.965 443.632L576.793 464.803V464.803ZM576.793 406.057V427.115H574.897V406.057L553.725 384.885L555.062 383.548L575.845 404.331L596.628 383.548L597.965 384.885L576.793 406.057V406.057ZM576.793 347.311V368.369H574.897V347.311L553.725 326.139L555.062 324.802L575.845 345.585L596.628 324.802L597.965 326.139L576.793 347.311V347.311ZM576.793 288.564V309.622H574.897V288.564L553.725 267.393L555.062 266.056L575.845 286.839L596.628 266.056L597.965 267.393L576.793 288.564V288.564ZM576.793 229.818V250.876H574.897V229.818L553.725 208.646L555.062 207.309L575.845 228.092L596.628 207.309L597.965 208.646L576.793 229.818V229.818ZM576.793 171.072V192.13H574.897V171.072L553.725 149.9L555.062 148.563L575.845 169.346L596.628 148.563L597.965 149.9L576.793 171.072V171.072ZM576.793 112.325V133.383H574.897V112.325L553.725 91.1535L555.062 89.8167L575.845 110.6L596.628 89.8167L597.965 91.1535L576.793 112.325V112.325ZM576.793 53.579V74.6371H574.897V53.579L553.725 32.4072L555.062 31.0703L575.845 51.8534L596.628 31.0703L597.965 32.4072L576.793 53.579V53.579ZM624.921 964.176V985.234H623.024V964.176L601.853 943.004L603.189 941.667L623.972 962.45L644.756 941.667L646.092 943.004L624.921 964.176V964.176ZM624.921 905.429V926.487H623.024V905.429L601.853 884.258L603.189 882.921L623.972 903.704L644.756 882.921L646.092 884.258L624.921 905.429V905.429ZM624.921 846.683V867.741H623.024V846.683L601.853 825.511L603.189 824.174L623.972 844.957L644.756 824.174L646.092 825.511L624.921 846.683V846.683ZM624.921 787.937V808.995H623.024V787.937L601.853 766.765L603.189 765.428L623.972 786.211L644.756 765.428L646.092 766.765L624.921 787.937V787.937ZM624.921 729.19V750.248H623.024V729.19L601.853 708.019L603.189 706.682L623.972 727.465L644.756 706.682L646.092 708.019L624.921 729.19V729.19ZM624.921 670.444V691.502H623.024V670.444L601.853 649.272L603.189 647.935L623.972 668.718L644.756 647.935L646.092 649.272L624.921 670.444V670.444ZM624.921 611.698V632.756H623.024V611.698L601.853 590.526L603.189 589.189L623.972 609.972L644.756 589.189L646.092 590.526L624.921 611.698V611.698ZM624.921 552.951V574.009H623.024V552.951L601.853 531.78L603.189 530.443L623.972 551.226L644.756 530.443L646.092 531.78L624.921 552.951V552.951ZM624.921 494.205V515.263H623.024V494.205L601.853 473.033L603.189 471.696L623.972 492.479L644.756 471.696L646.092 473.033L624.921 494.205V494.205ZM624.921 435.459V456.517H623.024V435.459L601.853 414.287L603.189 412.95L623.972 433.733L644.756 412.95L646.092 414.287L624.921 435.459V435.459ZM624.921 376.712V397.77H623.024V376.712L601.853 355.54L603.189 354.204L623.972 374.987L644.756 354.204L646.092 355.54L624.921 376.712V376.712ZM624.921 317.966V339.024H623.024V317.966L601.853 296.794L603.189 295.457L623.972 316.24L644.756 295.457L646.092 296.794L624.921 317.966V317.966ZM624.921 259.22V280.278H623.024V259.22L601.853 238.048L603.189 236.711L623.972 257.494L644.756 236.711L646.092 238.048L624.921 259.22V259.22ZM624.921 200.473V221.531H623.024V200.473L601.853 179.301L603.189 177.965L623.972 198.748L644.756 177.965L646.092 179.301L624.921 200.473V200.473ZM624.921 141.727V162.785H623.024V141.727L601.853 120.555L603.189 119.218L623.972 140.001L644.756 119.218L646.092 120.555L624.921 141.727V141.727ZM624.921 82.9806V104.039H623.024V82.9806L601.853 61.8088L603.189 60.4719L623.972 81.255L644.756 60.4719L646.092 61.8088L624.921 82.9806V82.9806ZM624.921 24.2343V45.2923H623.024V23.7507L601.853 2.57892L603.189 1.24205L623.972 22.0251L644.756 1.24205L646.092 2.57892L624.921 23.7507V24.2343ZM673.048 993.577V1014.64H671.152V993.577L649.98 972.405L651.317 971.069L672.1 991.852L692.883 971.069L694.22 972.405L673.048 993.577V993.577ZM673.048 934.831V955.889H671.152V934.831L649.98 913.659L651.317 912.322L672.1 933.105L692.883 912.322L694.22 913.659L673.048 934.831V934.831ZM673.048 876.085V897.143H671.152V876.085L649.98 854.913L651.317 853.576L672.1 874.359L692.883 853.576L694.22 854.913L673.048 876.085V876.085ZM673.048 817.338V838.396H671.152V817.338L649.98 796.166L651.317 794.83L672.1 815.613L692.883 794.83L694.22 796.166L673.048 817.338V817.338ZM673.048 758.592V779.65H671.152V758.592L649.98 737.42L651.317 736.083L672.1 756.866L692.883 736.083L694.22 737.42L673.048 758.592V758.592ZM673.048 699.846V720.904H671.152V699.846L649.98 678.674L651.317 677.337L672.1 698.12L692.883 677.337L694.22 678.674L673.048 699.846V699.846ZM673.048 641.099V662.157H671.152V641.099L649.98 619.927L651.317 618.591L672.1 639.374L692.883 618.591L694.22 619.927L673.048 641.099V641.099ZM673.048 582.353V603.411H671.152V582.353L649.98 561.181L651.317 559.844L672.1 580.627L692.883 559.844L694.22 561.181L673.048 582.353V582.353ZM673.048 523.607V544.665H671.152V523.607L649.98 502.435L651.317 501.098L672.1 521.881L692.883 501.098L694.22 502.435L673.048 523.607V523.607ZM673.048 464.86V485.918H671.152V464.86L649.98 443.688L651.317 442.352L672.1 463.135L692.883 442.352L694.22 443.688L673.048 464.86V464.86ZM673.048 406.114V427.172H671.152V406.114L649.98 384.942L651.317 383.605L672.1 404.388L692.883 383.605L694.22 384.942L673.048 406.114V406.114ZM673.048 347.368V368.426H671.152V347.368L649.98 326.196L651.317 324.859L672.1 345.642L692.883 324.859L694.22 326.196L673.048 347.368V347.368ZM673.048 288.621V309.679H671.152V288.621L649.98 267.449L651.317 266.113L672.1 286.896L692.883 266.113L694.22 267.449L673.048 288.621V288.621ZM673.048 229.875V250.933H671.152V229.875L649.98 208.703L651.317 207.366L672.1 228.149L692.883 207.366L694.22 208.703L673.048 229.875V229.875ZM673.048 171.129V192.187H671.152V171.129L649.98 149.957L651.317 148.62L672.1 169.403L692.883 148.62L694.22 149.957L673.048 171.129V171.129ZM673.048 112.382V133.44H671.152V112.382L649.98 91.2104L651.317 89.8736L672.1 110.657L692.883 89.8736L694.22 91.2104L673.048 112.382V112.382ZM673.048 53.6359V74.6939H671.152V53.6359L649.98 32.4641L651.317 31.1272L672.1 51.9103L692.883 31.1272L694.22 32.4641L673.048 53.6359V53.6359ZM721.175 964.233V985.291H719.279V964.233L698.107 943.061L699.444 941.724L720.227 962.507L741.01 941.724L742.347 943.061L721.175 964.233V964.233ZM721.175 905.486V926.544H719.279V905.486L698.107 884.314L699.444 882.978L720.227 903.761L741.01 882.978L742.347 884.314L721.175 905.486V905.486ZM721.175 846.74V867.798H719.279V846.74L698.107 825.568L699.444 824.231L720.227 845.014L741.01 824.231L742.347 825.568L721.175 846.74V846.74ZM721.175 787.994V809.052H719.279V787.994L698.107 766.822L699.444 765.485L720.227 786.268L741.01 765.485L742.347 766.822L721.175 787.994V787.994ZM721.175 729.247V750.305H719.279V729.247L698.107 708.075L699.444 706.739L720.227 727.522L741.01 706.739L742.347 708.075L721.175 729.247V729.247ZM721.175 670.501V691.559H719.279V670.501L698.107 649.329L699.444 647.992L720.227 668.775L741.01 647.992L742.347 649.329L721.175 670.501V670.501ZM721.175 611.755V632.813H719.279V611.755L698.107 590.583L699.444 589.246L720.227 610.029L741.01 589.246L742.347 590.583L721.175 611.755V611.755ZM721.175 553.008V574.066H719.279V553.008L698.107 531.836L699.444 530.5L720.227 551.283L741.01 530.5L742.347 531.836L721.175 553.008V553.008ZM721.175 494.262V515.32H719.279V494.262L698.107 473.09L699.444 471.753L720.227 492.536L741.01 471.753L742.347 473.09L721.175 494.262V494.262ZM721.175 435.516V456.574H719.279V435.516L698.107 414.344L699.444 413.007L720.227 433.79L741.01 413.007L742.347 414.344L721.175 435.516V435.516ZM721.175 376.769V397.827H719.279V376.769L698.107 355.597L699.444 354.261L720.227 375.044L741.01 354.261L742.347 355.597L721.175 376.769V376.769ZM721.175 318.023V339.081H719.279V318.023L698.107 296.851L699.444 295.514L720.227 316.297L741.01 295.514L742.347 296.851L721.175 318.023V318.023ZM721.175 259.277V280.335H719.279V259.277L698.107 238.105L699.444 236.768L720.227 257.551L741.01 236.768L742.347 238.105L721.175 259.277V259.277ZM721.175 200.53V221.588H719.279V200.53L698.107 179.358L699.444 178.022L720.227 198.805L741.01 178.022L742.347 179.358L721.175 200.53V200.53ZM721.175 141.784V162.842H719.279V141.784L698.107 120.612L699.444 119.275L720.227 140.058L741.01 119.275L742.347 120.612L721.175 141.784V141.784ZM721.175 83.0375V104.096H719.279V83.0375L698.107 61.8657L699.444 60.5288L720.227 81.3119L741.01 60.5288L742.347 61.8657L721.175 83.0375V83.0375ZM721.175 24.2912V45.3492H719.279V23.7507L698.107 2.57892L699.444 1.24205L720.227 22.0251L741.01 1.24205L742.347 2.57892L721.175 23.7507V24.2912ZM769.302 993.634V1014.69H767.406V993.634L746.234 972.462L747.571 971.126L768.354 991.909L789.137 971.126L790.474 972.462L769.302 993.634ZM769.302 934.888V955.946H767.406V934.888L746.234 913.716L747.571 912.379L768.354 933.162L789.137 912.379L790.474 913.716L769.302 934.888ZM769.302 876.142V897.2H767.406V876.142L746.234 854.97L747.571 853.633L768.354 874.416L789.137 853.633L790.474 854.97L769.302 876.142ZM769.302 817.395V838.453H767.406V817.395L746.234 796.223L747.571 794.887L768.354 815.67L789.137 794.887L790.474 796.223L769.302 817.395ZM769.302 758.649V779.707H767.406V758.649L746.234 737.477L747.571 736.14L768.354 756.923L789.137 736.14L790.474 737.477L769.302 758.649ZM769.302 699.903V720.961H767.406V699.903L746.234 678.731L747.571 677.394L768.354 698.177L789.137 677.394L790.474 678.731L769.302 699.903ZM769.302 641.156V662.214H767.406V641.156L746.234 619.984L747.571 618.647L768.354 639.431L789.137 618.647L790.474 619.984L769.302 641.156ZM769.302 582.41V603.468H767.406V582.41L746.234 561.238L747.571 559.901L768.354 580.684L789.137 559.901L790.474 561.238L769.302 582.41ZM769.302 523.663V544.722H767.406V523.663L746.234 502.492L747.571 501.155L768.354 521.938L789.137 501.155L790.474 502.492L769.302 523.663ZM769.302 464.917V485.975H767.406V464.917L746.234 443.745L747.571 442.408L768.354 463.192L789.137 442.408L790.474 443.745L769.302 464.917ZM769.302 406.171V427.229H767.406V406.171L746.234 384.999L747.571 383.662L768.354 404.445L789.137 383.662L790.474 384.999L769.302 406.171ZM769.302 347.424V368.483H767.406V347.424L746.234 326.253L747.571 324.916L768.354 345.699L789.137 324.916L790.474 326.253L769.302 347.424ZM769.302 288.678V309.736H767.406V288.678L746.234 267.506L747.571 266.169L768.354 286.953L789.137 266.169L790.474 267.506L769.302 288.678ZM769.302 229.932V250.99H767.406V229.932L746.234 208.76L747.571 207.423L768.354 228.206L789.137 207.423L790.474 208.76L769.302 229.932V229.932ZM769.302 171.185V192.244H767.406V171.185L746.234 150.014L747.571 148.677L768.354 169.46L789.137 148.677L790.474 150.014L769.302 171.185ZM769.302 112.439V133.497H767.406V112.439L746.234 91.2673L747.571 89.9304L768.354 110.714L789.137 89.9304L790.474 91.2673L769.302 112.439ZM769.302 53.6928V74.7508H767.406V53.6928L746.234 32.521L747.571 31.1841L768.354 51.9672L789.137 31.1841L790.474 32.521L769.302 53.6928ZM817.43 964.289V985.348H815.533V964.289L794.361 943.118L795.698 941.781L816.482 962.564L837.265 941.781L838.601 943.118L817.43 964.289V964.289ZM817.43 905.543V926.601H815.533V905.543L794.361 884.371L795.698 883.034L816.482 903.818L837.265 883.034L838.601 884.371L817.43 905.543V905.543ZM817.43 846.797V867.855H815.533V846.797L794.361 825.625L795.698 824.288L816.482 845.071L837.265 824.288L838.601 825.625L817.43 846.797V846.797ZM817.43 788.05V809.109H815.533V788.05L794.361 766.879L795.698 765.542L816.482 786.325L837.265 765.542L838.601 766.879L817.43 788.05V788.05ZM817.43 729.304V750.362H815.533V729.304L794.361 708.132L795.698 706.795L816.482 727.579L837.265 706.795L838.601 708.132L817.43 729.304V729.304ZM817.43 670.558V691.616H815.533V670.558L794.361 649.386L795.698 648.049L816.482 668.832L837.265 648.049L838.601 649.386L817.43 670.558V670.558ZM817.43 611.811V632.869H815.533V611.811L794.361 590.64L795.698 589.303L816.482 610.086L837.265 589.303L838.601 590.64L817.43 611.811V611.811ZM817.43 553.065V574.123H815.533V553.065L794.361 531.893L795.698 530.556L816.482 551.34L837.265 530.556L838.601 531.893L817.43 553.065V553.065ZM817.43 494.319V515.377H815.533V494.319L794.361 473.147L795.698 471.81L816.482 492.593L837.265 471.81L838.601 473.147L817.43 494.319V494.319ZM817.43 435.572V456.63H815.533V435.572L794.361 414.401L795.698 413.064L816.482 433.847L837.265 413.064L838.601 414.401L817.43 435.572V435.572ZM817.43 376.826V397.884H815.533V376.826L794.361 355.654L795.698 354.317L816.482 375.1L837.265 354.317L838.601 355.654L817.43 376.826V376.826ZM817.43 318.08V339.138H815.533V318.08L794.361 296.908L795.698 295.571L816.482 316.354L837.265 295.571L838.601 296.908L817.43 318.08V318.08ZM817.43 259.333V280.391H815.533V259.333L794.361 238.162L795.698 236.825L816.482 257.608L837.265 236.825L838.601 238.162L817.43 259.333V259.333ZM817.43 200.587V221.645H815.533V200.587L794.361 179.415L795.698 178.078L816.482 198.861L837.265 178.078L838.601 179.415L817.43 200.587V200.587ZM817.43 141.841V162.899H815.533V141.841L794.361 120.669L795.698 119.332L816.482 140.115L837.265 119.332L838.601 120.669L817.43 141.841V141.841ZM817.43 83.0944V104.152H815.533V83.0944L794.361 61.9226L795.698 60.5857L816.482 81.3688L837.265 60.5857L838.601 61.9226L817.43 83.0944V83.0944ZM817.43 24.3481V45.4061H815.533V23.7507L794.361 2.57892L795.698 1.24205L816.482 22.0251L837.265 1.24205L838.601 2.57892L817.43 23.7507V24.3481ZM865.557 993.691V1014.75H863.661V993.691L842.489 972.519L843.826 971.182L864.609 991.965L885.392 971.182L886.729 972.519L865.557 993.691V993.691ZM865.557 934.945V956.003H863.661V934.945L842.489 913.773L843.826 912.436L864.609 933.219L885.392 912.436L886.729 913.773L865.557 934.945V934.945ZM865.557 876.198V897.256H863.661V876.198L842.489 855.027L843.826 853.69L864.609 874.473L885.392 853.69L886.729 855.027L865.557 876.198V876.198ZM865.557 817.452V838.51H863.661V817.452L842.489 796.28L843.826 794.943L864.609 815.726L885.392 794.943L886.729 796.28L865.557 817.452V817.452ZM865.557 758.706V779.764H863.661V758.706L842.489 737.534L843.826 736.197L864.609 756.98L885.392 736.197L886.729 737.534L865.557 758.706V758.706ZM865.557 699.959V721.017H863.661V699.959L842.489 678.788L843.826 677.451L864.609 698.234L885.392 677.451L886.729 678.788L865.557 699.959V699.959ZM865.557 641.213V662.271H863.661V641.213L842.489 620.041L843.826 618.704L864.609 639.487L885.392 618.704L886.729 620.041L865.557 641.213V641.213ZM865.557 582.467V603.525H863.661V582.467L842.489 561.295L843.826 559.958L864.609 580.741L885.392 559.958L886.729 561.295L865.557 582.467V582.467ZM865.557 523.72V544.778H863.661V523.72L842.489 502.549L843.826 501.212L864.609 521.995L885.392 501.212L886.729 502.549L865.557 523.72V523.72ZM865.557 464.974V486.032H863.661V464.974L842.489 443.802L843.826 442.465L864.609 463.248L885.392 442.465L886.729 443.802L865.557 464.974V464.974ZM865.557 406.228V427.286H863.661V406.228L842.489 385.056L843.826 383.719L864.609 404.502L885.392 383.719L886.729 385.056L865.557 406.228V406.228ZM865.557 347.481V368.539H863.661V347.481L842.489 326.31L843.826 324.973L864.609 345.756L885.392 324.973L886.729 326.31L865.557 347.481V347.481ZM865.557 288.735V309.793H863.661V288.735L842.489 267.563L843.826 266.226L864.609 287.009L885.392 266.226L886.729 267.563L865.557 288.735V288.735ZM865.557 229.989V251.047H863.661V229.989L842.489 208.817L843.826 207.48L864.609 228.263L885.392 207.48L886.729 208.817L865.557 229.989V229.989ZM865.557 171.242V192.3H863.661V171.242L842.489 150.071L843.826 148.734L864.609 169.517L885.392 148.734L886.729 150.071L865.557 171.242V171.242ZM865.557 112.496V133.554H863.661V112.496L842.489 91.3242L843.826 89.9873L864.609 110.77L885.392 89.9873L886.729 91.3242L865.557 112.496V112.496ZM865.557 53.7497V74.8077H863.661V53.7497L842.489 32.5779L843.826 31.241L864.609 52.0241L885.392 31.241L886.729 32.5779L865.557 53.7497V53.7497ZM913.684 964.346V985.404H911.788V964.346L890.616 943.175L891.953 941.838L912.736 962.621L933.519 941.838L934.856 943.175L913.684 964.346V964.346ZM913.684 905.6V926.658H911.788V905.6L890.616 884.428L891.953 883.091L912.736 903.874L933.519 883.091L934.856 884.428L913.684 905.6V905.6ZM913.684 846.854V867.912H911.788V846.854L890.616 825.682L891.953 824.345L912.736 845.128L933.519 824.345L934.856 825.682L913.684 846.854V846.854ZM913.684 788.107V809.165H911.788V788.107L890.616 766.936L891.953 765.599L912.736 786.382L933.519 765.599L934.856 766.936L913.684 788.107V788.107ZM913.684 729.361V750.419H911.788V729.361L890.616 708.189L891.953 706.852L912.736 727.635L933.519 706.852L934.856 708.189L913.684 729.361V729.361ZM913.684 670.615V691.673H911.788V670.615L890.616 649.443L891.953 648.106L912.736 668.889L933.519 648.106L934.856 649.443L913.684 670.615V670.615ZM913.684 611.868V632.926H911.788V611.868L890.616 590.697L891.953 589.36L912.736 610.143L933.519 589.36L934.856 590.697L913.684 611.868V611.868ZM913.684 553.122V574.18H911.788V553.122L890.616 531.95L891.953 530.613L912.736 551.396L933.519 530.613L934.856 531.95L913.684 553.122V553.122ZM913.684 494.376V515.434H911.788V494.376L890.616 473.204L891.953 471.867L912.736 492.65L933.519 471.867L934.856 473.204L913.684 494.376V494.376ZM913.684 435.629V456.687H911.788V435.629L890.616 414.458L891.953 413.121L912.736 433.904L933.519 413.121L934.856 414.458L913.684 435.629V435.629ZM913.684 376.883V397.941H911.788V376.883L890.616 355.711L891.953 354.374L912.736 375.157L933.519 354.374L934.856 355.711L913.684 376.883V376.883ZM913.684 318.137V339.195H911.788V318.137L890.616 296.965L891.953 295.628L912.736 316.411L933.519 295.628L934.856 296.965L913.684 318.137V318.137ZM913.684 259.39V280.448H911.788V259.39L890.616 238.218L891.953 236.882L912.736 257.665L933.519 236.882L934.856 238.218L913.684 259.39V259.39ZM913.684 200.644V221.702H911.788V200.644L890.616 179.472L891.953 178.135L912.736 198.918L933.519 178.135L934.856 179.472L913.684 200.644V200.644ZM913.684 141.898V162.956H911.788V141.898L890.616 120.726L891.953 119.389L912.736 140.172L933.519 119.389L934.856 120.726L913.684 141.898V141.898ZM913.684 83.1513V104.209H911.788V83.1513L890.616 61.9795L891.953 60.6426L912.736 81.4257L933.519 60.6426L934.856 61.9795L913.684 83.1513V83.1513ZM913.684 24.405V45.463H911.788V23.7507L890.616 2.57892L891.953 1.24205L912.736 22.0251L933.519 1.24205L934.856 2.57892L913.684 23.7507V24.405ZM961.811 993.748V1014.81H959.915V993.748L938.743 972.576L940.08 971.239L960.863 992.022L981.646 971.239L982.983 972.576L961.811 993.748V993.748ZM961.811 935.002V956.06H959.915V935.002L938.743 913.83L940.08 912.493L960.863 933.276L981.646 912.493L982.983 913.83L961.811 935.002V935.002ZM961.811 876.255V897.313H959.915V876.255L938.743 855.083L940.08 853.747L960.863 874.53L981.646 853.747L982.983 855.083L961.811 876.255V876.255ZM961.811 817.509V838.567H959.915V817.509L938.743 796.337L940.08 795L960.863 815.783L981.646 795L982.983 796.337L961.811 817.509V817.509ZM961.811 758.763V779.821H959.915V758.763L938.743 737.591L940.08 736.254L960.863 757.037L981.646 736.254L982.983 737.591L961.811 758.763V758.763ZM961.811 700.016V721.074H959.915V700.016L938.743 678.844L940.08 677.508L960.863 698.291L981.646 677.508L982.983 678.844L961.811 700.016V700.016ZM961.811 641.27V662.328H959.915V641.27L938.743 620.098L940.08 618.761L960.863 639.544L981.646 618.761L982.983 620.098L961.811 641.27V641.27ZM961.811 582.524V603.582H959.915V582.524L938.743 561.352L940.08 560.015L960.863 580.798L981.646 560.015L982.983 561.352L961.811 582.524V582.524ZM961.811 523.777V544.835H959.915V523.777L938.743 502.605L940.08 501.269L960.863 522.052L981.646 501.269L982.983 502.605L961.811 523.777V523.777ZM961.811 465.031V486.089H959.915V465.031L938.743 443.859L940.08 442.522L960.863 463.305L981.646 442.522L982.983 443.859L961.811 465.031V465.031ZM961.811 406.285V427.343H959.915V406.285L938.743 385.113L940.08 383.776L960.863 404.559L981.646 383.776L982.983 385.113L961.811 406.285V406.285ZM961.811 347.538V368.596H959.915V347.538L938.743 326.366L940.08 325.03L960.863 345.813L981.646 325.03L982.983 326.366L961.811 347.538V347.538ZM961.811 288.792V309.85H959.915V288.792L938.743 267.62L940.08 266.283L960.863 287.066L981.646 266.283L982.983 267.62L961.811 288.792V288.792ZM961.811 230.046V251.104H959.915V230.046L938.743 208.874L940.08 207.537L960.863 228.32L981.646 207.537L982.983 208.874L961.811 230.046V230.046ZM961.811 171.299V192.357H959.915V171.299L938.743 150.127L940.08 148.791L960.863 169.574L981.646 148.791L982.983 150.127L961.811 171.299V171.299ZM961.811 112.553V133.611H959.915V112.553L938.743 91.3811L940.08 90.0442L960.863 110.827L981.646 90.0442L982.983 91.3811L961.811 112.553V112.553ZM961.811 53.8066V74.8646H959.915V53.8066L938.743 32.6347L940.08 31.2979L960.863 52.081L981.646 31.2979L982.983 32.6347L961.811 53.8066V53.8066ZM1009.94 964.403V985.461H1008.04V964.403L986.871 943.231L988.207 941.895L1008.99 962.678L1029.77 941.895L1031.11 943.231L1009.94 964.403V964.403ZM1009.94 905.657V926.715H1008.04V905.657L986.871 884.485L988.207 883.148L1008.99 903.931L1029.77 883.148L1031.11 884.485L1009.94 905.657V905.657ZM1009.94 846.911V867.969H1008.04V846.911L986.871 825.739L988.207 824.402L1008.99 845.185L1029.77 824.402L1031.11 825.739L1009.94 846.911V846.911ZM1009.94 788.164V809.222H1008.04V788.164L986.871 766.992L988.207 765.656L1008.99 786.439L1029.77 765.656L1031.11 766.992L1009.94 788.164V788.164ZM1009.94 729.418V750.476H1008.04V729.418L986.871 708.246L988.207 706.909L1008.99 727.692L1029.77 706.909L1031.11 708.246L1009.94 729.418V729.418ZM1009.94 670.672V691.73H1008.04V670.672L986.871 649.5L988.207 648.163L1008.99 668.946L1029.77 648.163L1031.11 649.5L1009.94 670.672V670.672ZM1009.94 611.925V632.983H1008.04V611.925L986.871 590.753L988.207 589.417L1008.99 610.2L1029.77 589.417L1031.11 590.753L1009.94 611.925V611.925ZM1009.94 553.179V574.237H1008.04V553.179L986.871 532.007L988.207 530.67L1008.99 551.453L1029.77 530.67L1031.11 532.007L1009.94 553.179V553.179ZM1009.94 494.433V515.491H1008.04V494.433L986.871 473.261L988.207 471.924L1008.99 492.707L1029.77 471.924L1031.11 473.261L1009.94 494.433V494.433ZM1009.94 435.686V456.744H1008.04V435.686L986.871 414.514L988.207 413.178L1008.99 433.961L1029.77 413.178L1031.11 414.514L1009.94 435.686V435.686ZM1009.94 376.94V397.998H1008.04V376.94L986.871 355.768L988.207 354.431L1008.99 375.214L1029.77 354.431L1031.11 355.768L1009.94 376.94V376.94ZM1009.94 318.194V339.252H1008.04V318.194L986.871 297.022L988.207 295.685L1008.99 316.468L1029.77 295.685L1031.11 297.022L1009.94 318.194V318.194ZM1009.94 259.447V280.505H1008.04V259.447L986.871 238.275L988.207 236.939L1008.99 257.722L1029.77 236.939L1031.11 238.275L1009.94 259.447V259.447ZM1009.94 200.701V221.759H1008.04V200.701L986.871 179.529L988.207 178.192L1008.99 198.975L1029.77 178.192L1031.11 179.529L1009.94 200.701V200.701ZM1009.94 141.955V163.013H1008.04V141.955L986.871 120.783L988.207 119.446L1008.99 140.229L1029.77 119.446L1031.11 120.783L1009.94 141.955V141.955ZM1009.94 83.2082V104.266H1008.04V83.2082L986.871 62.0364L988.207 60.6995L1008.99 81.4826L1029.77 60.6995L1031.11 62.0364L1009.94 83.2082V83.2082ZM1009.94 24.4618V45.5199H1008.04V23.7507L986.871 2.57892L988.207 1.24205L1008.99 22.0251L1029.77 1.24205L1031.11 2.57892L1009.94 23.7507V24.4618ZM1058.07 993.805V1014.86H1056.17V993.805L1035 972.633L1036.33 971.296L1057.12 992.079L1077.9 971.296L1079.24 972.633L1058.07 993.805V993.805ZM1058.07 935.059V956.117H1056.17V935.059L1035 913.887L1036.33 912.55L1057.12 933.333L1077.9 912.55L1079.24 913.887L1058.07 935.059V935.059ZM1058.07 876.312V897.37H1056.17V876.312L1035 855.14L1036.33 853.804L1057.12 874.587L1077.9 853.804L1079.24 855.14L1058.07 876.312V876.312ZM1058.07 817.566V838.624H1056.17V817.566L1035 796.394L1036.33 795.057L1057.12 815.84L1077.9 795.057L1079.24 796.394L1058.07 817.566V817.566ZM1058.07 758.82V779.878H1056.17V758.82L1035 737.648L1036.33 736.311L1057.12 757.094L1077.9 736.311L1079.24 737.648L1058.07 758.82V758.82ZM1058.07 700.073V721.131H1056.17V700.073L1035 678.901L1036.33 677.564L1057.12 698.348L1077.9 677.564L1079.24 678.901L1058.07 700.073V700.073ZM1058.07 641.327V662.385H1056.17V641.327L1035 620.155L1036.33 618.818L1057.12 639.601L1077.9 618.818L1079.24 620.155L1058.07 641.327V641.327ZM1058.07 582.581V603.639H1056.17V582.581L1035 561.409L1036.33 560.072L1057.12 580.855L1077.9 560.072L1079.24 561.409L1058.07 582.581V582.581ZM1058.07 523.834V544.892H1056.17V523.834L1035 502.662L1036.33 501.325L1057.12 522.109L1077.9 501.325L1079.24 502.662L1058.07 523.834V523.834ZM1058.07 465.088V486.146H1056.17V465.088L1035 443.916L1036.33 442.579L1057.12 463.362L1077.9 442.579L1079.24 443.916L1058.07 465.088V465.088ZM1058.07 406.341V427.4H1056.17V406.341L1035 385.17L1036.33 383.833L1057.12 404.616L1077.9 383.833L1079.24 385.17L1058.07 406.341V406.341ZM1058.07 347.595V368.653H1056.17V347.595L1035 326.423L1036.33 325.086L1057.12 345.87L1077.9 325.086L1079.24 326.423L1058.07 347.595V347.595ZM1058.07 288.849V309.907H1056.17V288.849L1035 267.677L1036.33 266.34L1057.12 287.123L1077.9 266.34L1079.24 267.677L1058.07 288.849V288.849ZM1058.07 230.102V251.161H1056.17V230.102L1035 208.931L1036.33 207.594L1057.12 228.377L1077.9 207.594L1079.24 208.931L1058.07 230.102V230.102ZM1058.07 171.356V192.414H1056.17V171.356L1035 150.184L1036.33 148.847L1057.12 169.631L1077.9 148.847L1079.24 150.184L1058.07 171.356V171.356ZM1058.07 112.61V133.668H1056.17V112.61L1035 91.438L1036.33 90.1011L1057.12 110.884L1077.9 90.1011L1079.24 91.438L1058.07 112.61V112.61ZM1058.07 53.8635V74.9215H1056.17V53.8635L1035 32.6916L1036.33 31.3548L1057.12 52.1379L1077.9 31.3548L1079.24 32.6916L1058.07 53.8635V53.8635ZM1106.19 964.46V985.518H1104.3V964.46L1083.13 943.288L1084.46 941.951L1105.24 962.735L1126.03 941.951L1127.36 943.288L1106.19 964.46V964.46ZM1106.19 905.714V926.772H1104.3V905.714L1083.13 884.542L1084.46 883.205L1105.24 903.988L1126.03 883.205L1127.36 884.542L1106.19 905.714V905.714ZM1106.19 846.967V868.026H1104.3V846.967L1083.13 825.796L1084.46 824.459L1105.24 845.242L1126.03 824.459L1127.36 825.796L1106.19 846.967V846.967ZM1106.19 788.221V809.279H1104.3V788.221L1083.13 767.049L1084.46 765.712L1105.24 786.496L1126.03 765.712L1127.36 767.049L1106.19 788.221V788.221ZM1106.19 729.475V750.533H1104.3V729.475L1083.13 708.303L1084.46 706.966L1105.24 727.749L1126.03 706.966L1127.36 708.303L1106.19 729.475V729.475ZM1106.19 670.728V691.786H1104.3V670.728L1083.13 649.557L1084.46 648.22L1105.24 669.003L1126.03 648.22L1127.36 649.557L1106.19 670.728V670.728ZM1106.19 611.982V633.04H1104.3V611.982L1083.13 590.81L1084.46 589.473L1105.24 610.257L1126.03 589.473L1127.36 590.81L1106.19 611.982V611.982ZM1106.19 553.236V574.294H1104.3V553.236L1083.13 532.064L1084.46 530.727L1105.24 551.51L1126.03 530.727L1127.36 532.064L1106.19 553.236V553.236ZM1106.19 494.489V515.547H1104.3V494.489L1083.13 473.318L1084.46 471.981L1105.24 492.764L1126.03 471.981L1127.36 473.318L1106.19 494.489V494.489ZM1106.19 435.743V456.801H1104.3V435.743L1083.13 414.571L1084.46 413.234L1105.24 434.018L1126.03 413.234L1127.36 414.571L1106.19 435.743V435.743ZM1106.19 376.997V398.055H1104.3V376.997L1083.13 355.825L1084.46 354.488L1105.24 375.271L1126.03 354.488L1127.36 355.825L1106.19 376.997V376.997ZM1106.19 318.25V339.308H1104.3V318.25L1083.13 297.079L1084.46 295.742L1105.24 316.525L1126.03 295.742L1127.36 297.079L1106.19 318.25V318.25ZM1106.19 259.504V280.562H1104.3V259.504L1083.13 238.332L1084.46 236.995L1105.24 257.778L1126.03 236.995L1127.36 238.332L1106.19 259.504V259.504ZM1106.19 200.758V221.816H1104.3V200.758L1083.13 179.586L1084.46 178.249L1105.24 199.032L1126.03 178.249L1127.36 179.586L1106.19 200.758V200.758ZM1106.19 142.011V163.069H1104.3V142.011L1083.13 120.84L1084.46 119.503L1105.24 140.286L1126.03 119.503L1127.36 120.84L1106.19 142.011V142.011ZM1106.19 83.2651V104.323H1104.3V83.2651L1083.13 62.0932L1084.46 60.7564L1105.24 81.5395L1126.03 60.7564L1127.36 62.0932L1106.19 83.2651V83.2651ZM1106.19 24.5187V45.5768H1104.3V23.7507L1083.13 2.57892L1084.46 1.24205L1105.24 22.0251L1126.03 1.24205L1127.36 2.57892L1106.19 23.7507V24.5187ZM1154.32 993.862V1014.92H1152.42V993.862L1131.25 972.69L1132.59 971.353L1153.37 992.136L1174.16 971.353L1175.49 972.69L1154.32 993.862V993.862ZM1154.32 935.115V956.173H1152.42V935.115L1131.25 913.944L1132.59 912.607L1153.37 933.39L1174.16 912.607L1175.49 913.944L1154.32 935.115V935.115ZM1154.32 876.369V897.427H1152.42V876.369L1131.25 855.197L1132.59 853.86L1153.37 874.643L1174.16 853.86L1175.49 855.197L1154.32 876.369V876.369ZM1154.32 817.623V838.681H1152.42V817.623L1131.25 796.451L1132.59 795.114L1153.37 815.897L1174.16 795.114L1175.49 796.451L1154.32 817.623V817.623ZM1154.32 758.876V779.934H1152.42V758.876L1131.25 737.705L1132.59 736.368L1153.37 757.151L1174.16 736.368L1175.49 737.705L1154.32 758.876V758.876ZM1154.32 700.13V721.188H1152.42V700.13L1131.25 678.958L1132.59 677.621L1153.37 698.404L1174.16 677.621L1175.49 678.958L1154.32 700.13V700.13ZM1154.32 641.384V662.442H1152.42V641.384L1131.25 620.212L1132.59 618.875L1153.37 639.658L1174.16 618.875L1175.49 620.212L1154.32 641.384V641.384ZM1154.32 582.637V603.695H1152.42V582.637L1131.25 561.466L1132.59 560.129L1153.37 580.912L1174.16 560.129L1175.49 561.466L1154.32 582.637V582.637ZM1154.32 523.891V544.949H1152.42V523.891L1131.25 502.719L1132.59 501.382L1153.37 522.165L1174.16 501.382L1175.49 502.719L1154.32 523.891V523.891ZM1154.32 465.145V486.203H1152.42V465.145L1131.25 443.973L1132.59 442.636L1153.37 463.419L1174.16 442.636L1175.49 443.973L1154.32 465.145V465.145ZM1154.32 406.398V427.456H1152.42V406.398L1131.25 385.227L1132.59 383.89L1153.37 404.673L1174.16 383.89L1175.49 385.227L1154.32 406.398V406.398ZM1154.32 347.652V368.71H1152.42V347.652L1131.25 326.48L1132.59 325.143L1153.37 345.926L1174.16 325.143L1175.49 326.48L1154.32 347.652V347.652ZM1154.32 288.906V309.964H1152.42V288.906L1131.25 267.734L1132.59 266.397L1153.37 287.18L1174.16 266.397L1175.49 267.734L1154.32 288.906V288.906ZM1154.32 230.159V251.217H1152.42V230.159L1131.25 208.988L1132.59 207.651L1153.37 228.434L1174.16 207.651L1175.49 208.988L1154.32 230.159V230.159ZM1154.32 171.413V192.471H1152.42V171.413L1131.25 150.241L1132.59 148.904L1153.37 169.687L1174.16 148.904L1175.49 150.241L1154.32 171.413V171.413ZM1154.32 112.667V133.725H1152.42V112.667L1131.25 91.4949L1132.59 90.158L1153.37 110.941L1174.16 90.158L1175.49 91.4949L1154.32 112.667V112.667ZM1154.32 53.9203V74.9784H1152.42V53.9203L1131.25 32.7485L1132.59 31.4117L1153.37 52.1947L1174.16 31.4117L1175.49 32.7485L1154.32 53.9203V53.9203ZM1202.45 964.517V985.575H1200.55V964.517L1179.38 943.345L1180.72 942.008L1201.5 962.791L1222.28 942.008L1223.62 943.345L1202.45 964.517V964.517ZM1202.45 905.771V926.829H1200.55V905.771L1179.38 884.599L1180.72 883.262L1201.5 904.045L1222.28 883.262L1223.62 884.599L1202.45 905.771V905.771ZM1202.45 847.024V868.082H1200.55V847.024L1179.38 825.853L1180.72 824.516L1201.5 845.299L1222.28 824.516L1223.62 825.853L1202.45 847.024V847.024ZM1202.45 788.278V809.336H1200.55V788.278L1179.38 767.106L1180.72 765.769L1201.5 786.552L1222.28 765.769L1223.62 767.106L1202.45 788.278V788.278ZM1202.45 729.532V750.59H1200.55V729.532L1179.38 708.36L1180.72 707.023L1201.5 727.806L1222.28 707.023L1223.62 708.36L1202.45 729.532V729.532ZM1202.45 670.785V691.843H1200.55V670.785L1179.38 649.614L1180.72 648.277L1201.5 669.06L1222.28 648.277L1223.62 649.614L1202.45 670.785V670.785ZM1202.45 612.039V633.097H1200.55V612.039L1179.38 590.867L1180.72 589.53L1201.5 610.313L1222.28 589.53L1223.62 590.867L1202.45 612.039V612.039ZM1202.45 553.293V574.351H1200.55V553.293L1179.38 532.121L1180.72 530.784L1201.5 551.567L1222.28 530.784L1223.62 532.121L1202.45 553.293V553.293ZM1202.45 494.546V515.604H1200.55V494.546L1179.38 473.374L1180.72 472.038L1201.5 492.821L1222.28 472.038L1223.62 473.374L1202.45 494.546V494.546ZM1202.45 435.8V456.858H1200.55V435.8L1179.38 414.628L1180.72 413.291L1201.5 434.074L1222.28 413.291L1223.62 414.628L1202.45 435.8V435.8ZM1202.45 377.054V398.112H1200.55V377.054L1179.38 355.882L1180.72 354.545L1201.5 375.328L1222.28 354.545L1223.62 355.882L1202.45 377.054V377.054ZM1202.45 318.307V339.365H1200.55V318.307L1179.38 297.136L1180.72 295.799L1201.5 316.582L1222.28 295.799L1223.62 297.136L1202.45 318.307V318.307ZM1202.45 259.561V280.619H1200.55V259.561L1179.38 238.389L1180.72 237.052L1201.5 257.835L1222.28 237.052L1223.62 238.389L1202.45 259.561V259.561ZM1202.45 200.815V221.873H1200.55V200.815L1179.38 179.643L1180.72 178.306L1201.5 199.089L1222.28 178.306L1223.62 179.643L1202.45 200.815V200.815ZM1202.45 142.068V163.126H1200.55V142.068L1179.38 120.896L1180.72 119.56L1201.5 140.343L1222.28 119.56L1223.62 120.896L1202.45 142.068V142.068ZM1202.45 83.322V104.38H1200.55V83.322L1179.38 62.1501L1180.72 60.8133L1201.5 81.5963L1222.28 60.8133L1223.62 62.1501L1202.45 83.322V83.322ZM1202.45 24.5756V45.6337H1200.55V23.7507L1179.38 2.57892L1180.72 1.24205L1201.5 22.0251L1222.28 1.24205L1223.62 2.57892L1202.45 23.7507V24.5756ZM1250.57 993.919V1014.98H1248.68V993.919L1227.51 972.747L1228.84 971.41L1249.63 992.193L1270.41 971.41L1271.75 972.747L1250.57 993.919V993.919ZM1250.57 935.172V956.23H1248.68V935.172L1227.51 914L1228.84 912.664L1249.63 933.447L1270.41 912.664L1271.75 914L1250.57 935.172V935.172ZM1250.57 876.426V897.484H1248.68V876.426L1227.51 855.254L1228.84 853.917L1249.63 874.7L1270.41 853.917L1271.75 855.254L1250.57 876.426V876.426ZM1250.57 817.68V838.738H1248.68V817.68L1227.51 796.508L1228.84 795.171L1249.63 815.954L1270.41 795.171L1271.75 796.508L1250.57 817.68V817.68ZM1250.57 758.933V779.991H1248.68V758.933L1227.51 737.761L1228.84 736.425L1249.63 757.208L1270.41 736.425L1271.75 737.761L1250.57 758.933V758.933ZM1250.57 700.187V721.245H1248.68V700.187L1227.51 679.015L1228.84 677.678L1249.63 698.461L1270.41 677.678L1271.75 679.015L1250.57 700.187V700.187ZM1250.57 641.441V662.499H1248.68V641.441L1227.51 620.269L1228.84 618.932L1249.63 639.715L1270.41 618.932L1271.75 620.269L1250.57 641.441V641.441ZM1250.57 582.694V603.752H1248.68V582.694L1227.51 561.522L1228.84 560.186L1249.63 580.969L1270.41 560.186L1271.75 561.522L1250.57 582.694V582.694ZM1250.57 523.948V545.006H1248.68V523.948L1227.51 502.776L1228.84 501.439L1249.63 522.222L1270.41 501.439L1271.75 502.776L1250.57 523.948V523.948ZM1250.57 465.202V486.26H1248.68V465.202L1227.51 444.03L1228.84 442.693L1249.63 463.476L1270.41 442.693L1271.75 444.03L1250.57 465.202V465.202ZM1250.57 406.455V427.513H1248.68V406.455L1227.51 385.283L1228.84 383.947L1249.63 404.73L1270.41 383.947L1271.75 385.283L1250.57 406.455V406.455ZM1250.57 347.709V368.767H1248.68V347.709L1227.51 326.537L1228.84 325.2L1249.63 345.983L1270.41 325.2L1271.75 326.537L1250.57 347.709V347.709ZM1250.57 288.963V310.021H1248.68V288.963L1227.51 267.791L1228.84 266.454L1249.63 287.237L1270.41 266.454L1271.75 267.791L1250.57 288.963V288.963ZM1250.57 230.216V251.274H1248.68V230.216L1227.51 209.044L1228.84 207.708L1249.63 228.491L1270.41 207.708L1271.75 209.044L1250.57 230.216V230.216ZM1250.57 171.47V192.528H1248.68V171.47L1227.51 150.298L1228.84 148.961L1249.63 169.744L1270.41 148.961L1271.75 150.298L1250.57 171.47V171.47ZM1250.57 112.724V133.782H1248.68V112.724L1227.51 91.5517L1228.84 90.2149L1249.63 110.998L1270.41 90.2149L1271.75 91.5517L1250.57 112.724V112.724ZM1250.57 53.9772V75.0353H1248.68V53.9772L1227.51 32.8054L1228.84 31.4685L1249.63 52.2516L1270.41 31.4685L1271.75 32.8054L1250.57 53.9772V53.9772ZM1298.7 964.574V985.632H1296.81V964.574L1275.63 943.402L1276.97 942.065L1297.75 962.848L1318.54 942.065L1319.87 943.402L1298.7 964.574V964.574ZM1298.7 905.828V926.886H1296.81V905.828L1275.63 884.656L1276.97 883.319L1297.75 904.102L1318.54 883.319L1319.87 884.656L1298.7 905.828V905.828ZM1298.7 847.081V868.139H1296.81V847.081L1275.63 825.909L1276.97 824.573L1297.75 845.356L1318.54 824.573L1319.87 825.909L1298.7 847.081V847.081ZM1298.7 788.335V809.393H1296.81V788.335L1275.63 767.163L1276.97 765.826L1297.75 786.609L1318.54 765.826L1319.87 767.163L1298.7 788.335V788.335ZM1298.7 729.589V750.647H1296.81V729.589L1275.63 708.417L1276.97 707.08L1297.75 727.863L1318.54 707.08L1319.87 708.417L1298.7 729.589V729.589ZM1298.7 670.842V691.9H1296.81V670.842L1275.63 649.67L1276.97 648.334L1297.75 669.117L1318.54 648.334L1319.87 649.67L1298.7 670.842V670.842ZM1298.7 612.096V633.154H1296.81V612.096L1275.63 590.924L1276.97 589.587L1297.75 610.37L1318.54 589.587L1319.87 590.924L1298.7 612.096V612.096ZM1298.7 553.35V574.408H1296.81V553.35L1275.63 532.178L1276.97 530.841L1297.75 551.624L1318.54 530.841L1319.87 532.178L1298.7 553.35V553.35ZM1298.7 494.603V515.661H1296.81V494.603L1275.63 473.431L1276.97 472.095L1297.75 492.878L1318.54 472.095L1319.87 473.431L1298.7 494.603V494.603ZM1298.7 435.857V456.915H1296.81V435.857L1275.63 414.685L1276.97 413.348L1297.75 434.131L1318.54 413.348L1319.87 414.685L1298.7 435.857V435.857ZM1298.7 377.111V398.169H1296.81V377.111L1275.63 355.939L1276.97 354.602L1297.75 375.385L1318.54 354.602L1319.87 355.939L1298.7 377.111V377.111ZM1298.7 318.364V339.422H1296.81V318.364L1275.63 297.192L1276.97 295.856L1297.75 316.639L1318.54 295.856L1319.87 297.192L1298.7 318.364V318.364ZM1298.7 259.618V280.676H1296.81V259.618L1275.63 238.446L1276.97 237.109L1297.75 257.892L1318.54 237.109L1319.87 238.446L1298.7 259.618V259.618ZM1298.7 200.872V221.93H1296.81V200.872L1275.63 179.7L1276.97 178.363L1297.75 199.146L1318.54 178.363L1319.87 179.7L1298.7 200.872V200.872ZM1298.7 142.125V163.183H1296.81V142.125L1275.63 120.953L1276.97 119.616L1297.75 140.4L1318.54 119.616L1319.87 120.953L1298.7 142.125V142.125ZM1298.7 83.3788V104.437H1296.81V83.3788L1275.63 62.207L1276.97 60.8702L1297.75 81.6532L1318.54 60.8702L1319.87 62.207L1298.7 83.3788V83.3788ZM1298.7 24.6325V45.6905H1296.81V23.7507L1275.63 2.57892L1276.97 1.24205L1297.75 22.0251L1318.54 1.24205L1319.87 2.57892L1298.7 23.7507V24.6325ZM1346.83 993.976V1015.03H1344.93V993.976L1323.76 972.804L1325.1 971.467L1345.88 992.25L1366.66 971.467L1368 972.804L1346.83 993.976V993.976ZM1346.83 935.229V956.287H1344.93V935.229L1323.76 914.057L1325.1 912.721L1345.88 933.504L1366.66 912.721L1368 914.057L1346.83 935.229V935.229ZM1346.83 876.483V897.541H1344.93V876.483L1323.76 855.311L1325.1 853.974L1345.88 874.757L1366.66 853.974L1368 855.311L1346.83 876.483V876.483ZM1346.83 817.736V838.795H1344.93V817.736L1323.76 796.565L1325.1 795.228L1345.88 816.011L1366.66 795.228L1368 796.565L1346.83 817.736V817.736ZM1346.83 758.99V780.048H1344.93V758.99L1323.76 737.818L1325.1 736.482L1345.88 757.265L1366.66 736.482L1368 737.818L1346.83 758.99V758.99ZM1346.83 700.244V721.302H1344.93V700.244L1323.76 679.072L1325.1 677.735L1345.88 698.518L1366.66 677.735L1368 679.072L1346.83 700.244V700.244ZM1346.83 641.498V662.556H1344.93V641.498L1323.76 620.326L1325.1 618.989L1345.88 639.772L1366.66 618.989L1368 620.326L1346.83 641.498V641.498ZM1346.83 582.751V603.809H1344.93V582.751L1323.76 561.579L1325.1 560.242L1345.88 581.026L1366.66 560.242L1368 561.579L1346.83 582.751V582.751ZM1346.83 524.005V545.063H1344.93V524.005L1323.76 502.833L1325.1 501.496L1345.88 522.279L1366.66 501.496L1368 502.833L1346.83 524.005V524.005ZM1346.83 465.258V486.317H1344.93V465.258L1323.76 444.087L1325.1 442.75L1345.88 463.533L1366.66 442.75L1368 444.087L1346.83 465.258V465.258ZM1346.83 406.512V427.57H1344.93V406.512L1323.76 385.34L1325.1 384.003L1345.88 404.787L1366.66 384.003L1368 385.34L1346.83 406.512V406.512ZM1346.83 347.766V368.824H1344.93V347.766L1323.76 326.594L1325.1 325.257L1345.88 346.04L1366.66 325.257L1368 326.594L1346.83 347.766V347.766ZM1346.83 289.019V310.078H1344.93V289.019L1323.76 267.848L1325.1 266.511L1345.88 287.294L1366.66 266.511L1368 267.848L1346.83 289.019V289.019ZM1346.83 230.273V251.331H1344.93V230.273L1323.76 209.101L1325.1 207.764L1345.88 228.548L1366.66 207.764L1368 209.101L1346.83 230.273V230.273ZM1346.83 171.527V192.585H1344.93V171.527L1323.76 150.355L1325.1 149.018L1345.88 169.801L1366.66 149.018L1368 150.355L1346.83 171.527V171.527ZM1346.83 112.78V133.838H1344.93V112.78L1323.76 91.6086L1325.1 90.2718L1345.88 111.055L1366.66 90.2718L1368 91.6086L1346.83 112.78V112.78ZM1346.83 54.0341V75.0922H1344.93V54.0341L1323.76 32.8623L1325.1 31.5254L1345.88 52.3085L1366.66 31.5254L1368 32.8623L1346.83 54.0341V54.0341ZM1394.96 964.631V985.689H1393.06V964.631L1371.89 943.459L1373.23 942.122L1394.01 962.905L1414.79 942.122L1416.13 943.459L1394.96 964.631V964.631ZM1394.96 905.884V926.943H1393.06V905.884L1371.89 884.713L1373.23 883.376L1394.01 904.159L1414.79 883.376L1416.13 884.713L1394.96 905.884V905.884ZM1394.96 847.138V868.196H1393.06V847.138L1371.89 825.966L1373.23 824.629L1394.01 845.413L1414.79 824.629L1416.13 825.966L1394.96 847.138V847.138ZM1394.96 788.392V809.45H1393.06V788.392L1371.89 767.22L1373.23 765.883L1394.01 786.666L1414.79 765.883L1416.13 767.22L1394.96 788.392V788.392ZM1394.96 729.645V750.704H1393.06V729.645L1371.89 708.474L1373.23 707.137L1394.01 727.92L1414.79 707.137L1416.13 708.474L1394.96 729.645V729.645ZM1394.96 670.899V691.957H1393.06V670.899L1371.89 649.727L1373.23 648.39L1394.01 669.174L1414.79 648.39L1416.13 649.727L1394.96 670.899V670.899ZM1394.96 612.153V633.211H1393.06V612.153L1371.89 590.981L1373.23 589.644L1394.01 610.427L1414.79 589.644L1416.13 590.981L1394.96 612.153V612.153ZM1394.96 553.406V574.464H1393.06V553.406L1371.89 532.235L1373.23 530.898L1394.01 551.681L1414.79 530.898L1416.13 532.235L1394.96 553.406V553.406ZM1394.96 494.66V515.718H1393.06V494.66L1371.89 473.488L1373.23 472.151L1394.01 492.935L1414.79 472.151L1416.13 473.488L1394.96 494.66V494.66ZM1394.96 435.914V456.972H1393.06V435.914L1371.89 414.742L1373.23 413.405L1394.01 434.188L1414.79 413.405L1416.13 414.742L1394.96 435.914V435.914ZM1394.96 377.167V398.225H1393.06V377.167L1371.89 355.996L1373.23 354.659L1394.01 375.442L1414.79 354.659L1416.13 355.996L1394.96 377.167V377.167ZM1394.96 318.421V339.479H1393.06V318.421L1371.89 297.249L1373.23 295.912L1394.01 316.695L1414.79 295.912L1416.13 297.249L1394.96 318.421V318.421ZM1394.96 259.675V280.733H1393.06V259.675L1371.89 238.503L1373.23 237.166L1394.01 257.949L1414.79 237.166L1416.13 238.503L1394.96 259.675V259.675ZM1394.96 200.928V221.986H1393.06V200.928L1371.89 179.757L1373.23 178.42L1394.01 199.203L1414.79 178.42L1416.13 179.757L1394.96 200.928V200.928ZM1394.96 142.182V163.24H1393.06V142.182L1371.89 121.01L1373.23 119.673L1394.01 140.456L1414.79 119.673L1416.13 121.01L1394.96 142.182V142.182ZM1394.96 83.4357V104.494H1393.06V83.4357L1371.89 62.2639L1373.23 60.927L1394.01 81.7101L1414.79 60.927L1416.13 62.2639L1394.96 83.4357V83.4357ZM1394.96 24.6894V45.7474H1393.06V23.7507L1371.89 2.57892L1373.23 1.24205L1394.01 22.0251L1414.79 1.24205L1416.13 2.57892L1394.96 23.7507V24.6894ZM1443.08 994.032V1015.09H1441.19V994.032L1420.02 972.861L1421.35 971.524L1442.14 992.307L1462.92 971.524L1464.26 972.861L1443.08 994.032V994.032ZM1443.08 935.286V956.344H1441.19V935.286L1420.02 914.114L1421.35 912.777L1442.14 933.56L1462.92 912.777L1464.26 914.114L1443.08 935.286V935.286ZM1443.08 876.54V897.598H1441.19V876.54L1420.02 855.368L1421.35 854.031L1442.14 874.814L1462.92 854.031L1464.26 855.368L1443.08 876.54V876.54ZM1443.08 817.793V838.851H1441.19V817.793L1420.02 796.622L1421.35 795.285L1442.14 816.068L1462.92 795.285L1464.26 796.622L1443.08 817.793V817.793ZM1443.08 759.047V780.105H1441.19V759.047L1420.02 737.875L1421.35 736.538L1442.14 757.321L1462.92 736.538L1464.26 737.875L1443.08 759.047V759.047ZM1443.08 700.301V721.359H1441.19V700.301L1420.02 679.129L1421.35 677.792L1442.14 698.575L1462.92 677.792L1464.26 679.129L1443.08 700.301V700.301ZM1443.08 641.554V662.612H1441.19V641.554L1420.02 620.383L1421.35 619.046L1442.14 639.829L1462.92 619.046L1464.26 620.383L1443.08 641.554V641.554ZM1443.08 582.808V603.866H1441.19V582.808L1420.02 561.636L1421.35 560.299L1442.14 581.082L1462.92 560.299L1464.26 561.636L1443.08 582.808V582.808ZM1443.08 524.062V545.12H1441.19V524.062L1420.02 502.89L1421.35 501.553L1442.14 522.336L1462.92 501.553L1464.26 502.89L1443.08 524.062V524.062ZM1443.08 465.315V486.373H1441.19V465.315L1420.02 444.144L1421.35 442.807L1442.14 463.59L1462.92 442.807L1464.26 444.144L1443.08 465.315V465.315ZM1443.08 406.569V427.627H1441.19V406.569L1420.02 385.397L1421.35 384.06L1442.14 404.843L1462.92 384.06L1464.26 385.397L1443.08 406.569V406.569ZM1443.08 347.823V368.881H1441.19V347.823L1420.02 326.651L1421.35 325.314L1442.14 346.097L1462.92 325.314L1464.26 326.651L1443.08 347.823V347.823ZM1443.08 289.076V310.134H1441.19V289.076L1420.02 267.905L1421.35 266.568L1442.14 287.351L1462.92 266.568L1464.26 267.905L1443.08 289.076V289.076ZM1443.08 230.33V251.388H1441.19V230.33L1420.02 209.158L1421.35 207.821L1442.14 228.604L1462.92 207.821L1464.26 209.158L1443.08 230.33V230.33ZM1443.08 171.584V192.642H1441.19V171.584L1420.02 150.412L1421.35 149.075L1442.14 169.858L1462.92 149.075L1464.26 150.412L1443.08 171.584V171.584ZM1443.08 112.837V133.895H1441.19V112.837L1420.02 91.6655L1421.35 90.3287L1442.14 111.112L1462.92 90.3287L1464.26 91.6655L1443.08 112.837V112.837ZM1443.08 54.091V75.149H1441.19V54.091L1420.02 32.9192L1421.35 31.5823L1442.14 52.3654L1462.92 31.5823L1464.26 32.9192L1443.08 54.091V54.091ZM1491.21 964.688V985.746H1489.31V964.688L1468.14 943.516L1469.48 942.179L1490.26 962.962L1511.05 942.179L1512.38 943.516L1491.21 964.688V964.688ZM1491.21 905.941V926.999H1489.31V905.941L1468.14 884.77L1469.48 883.433L1490.26 904.216L1511.05 883.433L1512.38 884.77L1491.21 905.941V905.941ZM1491.21 847.195V868.253H1489.31V847.195L1468.14 826.023L1469.48 824.686L1490.26 845.469L1511.05 824.686L1512.38 826.023L1491.21 847.195V847.195ZM1491.21 788.449V809.507H1489.31V788.449L1468.14 767.277L1469.48 765.94L1490.26 786.723L1511.05 765.94L1512.38 767.277L1491.21 788.449V788.449ZM1491.21 729.702V750.76H1489.31V729.702L1468.14 708.531L1469.48 707.194L1490.26 727.977L1511.05 707.194L1512.38 708.531L1491.21 729.702V729.702ZM1491.21 670.956V692.014H1489.31V670.956L1468.14 649.784L1469.48 648.447L1490.26 669.23L1511.05 648.447L1512.38 649.784L1491.21 670.956V670.956ZM1491.21 612.21V633.268H1489.31V612.21L1468.14 591.038L1469.48 589.701L1490.26 610.484L1511.05 589.701L1512.38 591.038L1491.21 612.21V612.21ZM1491.21 553.463V574.521H1489.31V553.463L1468.14 532.291L1469.48 530.955L1490.26 551.738L1511.05 530.955L1512.38 532.291L1491.21 553.463V553.463ZM1491.21 494.717V515.775H1489.31V494.717L1468.14 473.545L1469.48 472.208L1490.26 492.991L1511.05 472.208L1512.38 473.545L1491.21 494.717V494.717ZM1491.21 435.971V457.029H1489.31V435.971L1468.14 414.799L1469.48 413.462L1490.26 434.245L1511.05 413.462L1512.38 414.799L1491.21 435.971V435.971ZM1491.21 377.224V398.282H1489.31V377.224L1468.14 356.052L1469.48 354.716L1490.26 375.499L1511.05 354.716L1512.38 356.052L1491.21 377.224V377.224ZM1491.21 318.478V339.536H1489.31V318.478L1468.14 297.306L1469.48 295.969L1490.26 316.752L1511.05 295.969L1512.38 297.306L1491.21 318.478V318.478ZM1491.21 259.732V280.79H1489.31V259.732L1468.14 238.56L1469.48 237.223L1490.26 258.006L1511.05 237.223L1512.38 238.56L1491.21 259.732V259.732ZM1491.21 200.985V222.043H1489.31V200.985L1468.14 179.813L1469.48 178.477L1490.26 199.26L1511.05 178.477L1512.38 179.813L1491.21 200.985V200.985ZM1491.21 142.239V163.297H1489.31V142.239L1468.14 121.067L1469.48 119.73L1490.26 140.513L1511.05 119.73L1512.38 121.067L1491.21 142.239V142.239ZM1491.21 83.4926V104.551H1489.31V83.4926L1468.14 62.3208L1469.48 60.9839L1490.26 81.767L1511.05 60.9839L1512.38 62.3208L1491.21 83.4926V83.4926ZM1491.21 24.7463V45.8043H1489.31V23.7507L1468.14 2.57892L1469.48 1.24205L1490.26 22.0251L1511.05 1.24205L1512.38 2.57892L1491.21 23.7507V24.7463ZM1539.34 994.089V1015.15H1537.44V994.089L1516.27 972.918L1517.61 971.581L1538.39 992.364L1559.17 971.581L1560.51 972.918L1539.34 994.089V994.089ZM1539.34 935.343V956.401H1537.44V935.343L1516.27 914.171L1517.61 912.834L1538.39 933.617L1559.17 912.834L1560.51 914.171L1539.34 935.343V935.343ZM1539.34 876.597V897.655H1537.44V876.597L1516.27 855.425L1517.61 854.088L1538.39 874.871L1559.17 854.088L1560.51 855.425L1539.34 876.597V876.597ZM1539.34 817.85V838.908H1537.44V817.85L1516.27 796.678L1517.61 795.342L1538.39 816.125L1559.17 795.342L1560.51 796.678L1539.34 817.85V817.85ZM1539.34 759.104V780.162H1537.44V759.104L1516.27 737.932L1517.61 736.595L1538.39 757.378L1559.17 736.595L1560.51 737.932L1539.34 759.104V759.104ZM1539.34 700.358V721.416H1537.44V700.358L1516.27 679.186L1517.61 677.849L1538.39 698.632L1559.17 677.849L1560.51 679.186L1539.34 700.358V700.358ZM1539.34 641.611V662.669H1537.44V641.611L1516.27 620.439L1517.61 619.103L1538.39 639.886L1559.17 619.103L1560.51 620.439L1539.34 641.611V641.611ZM1539.34 582.865V603.923H1537.44V582.865L1516.27 561.693L1517.61 560.356L1538.39 581.139L1559.17 560.356L1560.51 561.693L1539.34 582.865V582.865ZM1539.34 524.119V545.177H1537.44V524.119L1516.27 502.947L1517.61 501.61L1538.39 522.393L1559.17 501.61L1560.51 502.947L1539.34 524.119V524.119ZM1539.34 465.372V486.43H1537.44V465.372L1516.27 444.2L1517.61 442.864L1538.39 463.647L1559.17 442.864L1560.51 444.2L1539.34 465.372V465.372ZM1539.34 406.626V427.684H1537.44V406.626L1516.27 385.454L1517.61 384.117L1538.39 404.9L1559.17 384.117L1560.51 385.454L1539.34 406.626V406.626ZM1539.34 347.88V368.938H1537.44V347.88L1516.27 326.708L1517.61 325.371L1538.39 346.154L1559.17 325.371L1560.51 326.708L1539.34 347.88V347.88ZM1539.34 289.133V310.191H1537.44V289.133L1516.27 267.961L1517.61 266.625L1538.39 287.408L1559.17 266.625L1560.51 267.961L1539.34 289.133V289.133ZM1539.34 230.387V251.445H1537.44V230.387L1516.27 209.215L1517.61 207.878L1538.39 228.661L1559.17 207.878L1560.51 209.215L1539.34 230.387V230.387ZM1539.34 171.641V192.699H1537.44V171.641L1516.27 150.469L1517.61 149.132L1538.39 169.915L1559.17 149.132L1560.51 150.469L1539.34 171.641V171.641ZM1539.34 112.894V133.952H1537.44V112.894L1516.27 91.7224L1517.61 90.3855L1538.39 111.169L1559.17 90.3855L1560.51 91.7224L1539.34 112.894V112.894ZM1539.34 54.1479V75.2059H1537.44V54.1479L1516.27 32.9761L1517.61 31.6392L1538.39 52.4223L1559.17 31.6392L1560.51 32.9761L1539.34 54.1479V54.1479ZM1587.47 964.745V985.803H1585.57V964.745L1564.4 943.573L1565.73 942.236L1586.52 963.019L1607.3 942.236L1608.64 943.573L1587.47 964.745V964.745ZM1587.47 905.998V927.056H1585.57V905.998L1564.4 884.826L1565.73 883.49L1586.52 904.273L1607.3 883.49L1608.64 884.826L1587.47 905.998V905.998ZM1587.47 847.252V868.31H1585.57V847.252L1564.4 826.08L1565.73 824.743L1586.52 845.526L1607.3 824.743L1608.64 826.08L1587.47 847.252V847.252ZM1587.47 788.506V809.564H1585.57V788.506L1564.4 767.334L1565.73 765.997L1586.52 786.78L1607.3 765.997L1608.64 767.334L1587.47 788.506V788.506ZM1587.47 729.759V750.817H1585.57V729.759L1564.4 708.587L1565.73 707.251L1586.52 728.034L1607.3 707.251L1608.64 708.587L1587.47 729.759V729.759ZM1587.47 671.013V692.071H1585.57V671.013L1564.4 649.841L1565.73 648.504L1586.52 669.287L1607.3 648.504L1608.64 649.841L1587.47 671.013V671.013ZM1587.47 612.267V633.325H1585.57V612.267L1564.4 591.095L1565.73 589.758L1586.52 610.541L1607.3 589.758L1608.64 591.095L1587.47 612.267V612.267ZM1587.47 553.52V574.578H1585.57V553.52L1564.4 532.348L1565.73 531.012L1586.52 551.795L1607.3 531.012L1608.64 532.348L1587.47 553.52V553.52ZM1587.47 494.774V515.832H1585.57V494.774L1564.4 473.602L1565.73 472.265L1586.52 493.048L1607.3 472.265L1608.64 473.602L1587.47 494.774V494.774ZM1587.47 436.028V457.086H1585.57V436.028L1564.4 414.856L1565.73 413.519L1586.52 434.302L1607.3 413.519L1608.64 414.856L1587.47 436.028V436.028ZM1587.47 377.281V398.339H1585.57V377.281L1564.4 356.109L1565.73 354.773L1586.52 375.556L1607.3 354.773L1608.64 356.109L1587.47 377.281V377.281ZM1587.47 318.535V339.593H1585.57V318.535L1564.4 297.363L1565.73 296.026L1586.52 316.809L1607.3 296.026L1608.64 297.363L1587.47 318.535V318.535ZM1587.47 259.789V280.847H1585.57V259.789L1564.4 238.617L1565.73 237.28L1586.52 258.063L1607.3 237.28L1608.64 238.617L1587.47 259.789V259.789ZM1587.47 201.042V222.1H1585.57V201.042L1564.4 179.87L1565.73 178.534L1586.52 199.317L1607.3 178.534L1608.64 179.87L1587.47 201.042V201.042ZM1587.47 142.296V163.354H1585.57V142.296L1564.4 121.124L1565.73 119.787L1586.52 140.57L1607.3 119.787L1608.64 121.124L1587.47 142.296V142.296ZM1587.47 83.5495V104.608H1585.57V83.5495L1564.4 62.3777L1565.73 61.0408L1586.52 81.8239L1607.3 61.0408L1608.64 62.3777L1587.47 83.5495V83.5495ZM1587.47 24.8032V45.8612H1585.57V23.7507L1564.4 2.57892L1565.73 1.24205L1586.52 22.0251L1607.3 1.24205L1608.64 2.57892L1587.47 23.7507V24.8032Z" fill="#111012"/>
<rect width="1440" height="109" transform="matrix(1 0 0 -1 0 724)" fill="url(#paint2_linear_1_1645)"/>
<rect width="1440" height="109" transform="matrix(1 0 0 -1 0 724)" fill="url(#paint3_linear_1_1645)"/>
<rect width="1440" height="109" transform="matrix(1 0 0 -1 0 724)" fill="url(#paint4_linear_1_1645)"/>
<defs>
<linearGradient id="paint0_linear_1_1645" x1="1073" y1="5.6224e-05" x2="726.394" y2="466.442" gradientUnits="userSpaceOnUse">
<stop offset="0.106637" stop-color="#CB8798"/>
<stop offset="0.609375" stop-color="#220B50"/>
<stop offset="1" stop-color="#230B52"/>
</linearGradient>
<linearGradient id="paint1_linear_1_1645" x1="0.222656" y1="0" x2="581.345" y2="1155.82" gradientUnits="userSpaceOnUse">
<stop offset="0.106637" stop-color="#CB8798"/>
<stop offset="0.270394" stop-color="#220B50"/>
<stop offset="0.707553" stop-color="#230B52"/>
<stop offset="0.971983" stop-color="#68E3A1"/>
</linearGradient>
<linearGradient id="paint2_linear_1_1645" x1="720" y1="0" x2="720" y2="109" gradientUnits="userSpaceOnUse">
<stop stop-color="#111111"/>
<stop offset="1" stop-color="#111111" stop-opacity="0"/>
</linearGradient>
<linearGradient id="paint3_linear_1_1645" x1="720" y1="0" x2="720" y2="109" gradientUnits="userSpaceOnUse">
<stop stop-color="#111111"/>
<stop offset="1" stop-color="#111111" stop-opacity="0"/>
</linearGradient>
<linearGradient id="paint4_linear_1_1645" x1="720" y1="0" x2="720" y2="109" gradientUnits="userSpaceOnUse">
<stop stop-color="#111111"/>
<stop offset="1" stop-color="#111111" stop-opacity="0"/>
</linearGradient>
</defs>
</svg>
