<svg width="22" height="22" viewBox="0 0 22 22" fill="none" xmlns="http://www.w3.org/2000/svg">
<path d="M9.16659 5.5H6.41659C5.93035 5.5 5.46404 5.69315 5.12022 6.03697C4.77641 6.38079 4.58325 6.8471 4.58325 7.33333V15.5833C4.58325 16.0696 4.77641 16.5359 5.12022 16.8797C5.46404 17.2235 5.93035 17.4167 6.41659 17.4167H14.6666C15.1528 17.4167 15.6191 17.2235 15.9629 16.8797C16.3068 16.5359 16.4999 16.0696 16.4999 15.5833V12.8333" stroke="white" stroke-linecap="round" stroke-linejoin="round"></path>
<path d="M12.8333 11C12.8333 11.7293 13.123 12.4288 13.6387 12.9445C14.1544 13.4603 14.8539 13.75 15.5833 13.75C16.3126 13.75 17.0121 13.4603 17.5278 12.9445C18.0435 12.4288 18.3333 11.7293 18.3333 11C18.3333 10.2707 18.0435 9.57118 17.5278 9.05546C17.0121 8.53973 16.3126 8.25 15.5833 8.25C14.8539 8.25 14.1544 8.53973 13.6387 9.05546C13.123 9.57118 12.8333 10.2707 12.8333 11Z" stroke="white" stroke-linecap="round" stroke-linejoin="round"></path>
</svg>