<svg width="21" height="22" viewBox="0 0 21 22" fill="none" xmlns="http://www.w3.org/2000/svg">
<g clip-path="url(#clip0_1_1781)">
<path d="M19.25 3.66659C19.25 4.15282 19.0656 4.61913 18.7374 4.96295C18.4092 5.30676 17.9641 5.49992 17.5 5.49992C17.0359 5.49992 16.5908 5.30676 16.2626 4.96295C15.9344 4.61913 15.75 4.15282 15.75 3.66659C15.75 3.18035 15.9344 2.71404 16.2626 2.37022C16.5908 2.02641 17.0359 1.83325 17.5 1.83325C17.9641 1.83325 18.4092 2.02641 18.7374 2.37022C19.0656 2.71404 19.25 3.18035 19.25 3.66659Z" stroke="white" stroke-linecap="round" stroke-linejoin="round"></path>
<path d="M5.25 9.16659C5.25 9.65282 5.06563 10.1191 4.73744 10.4629C4.40925 10.8068 3.96413 10.9999 3.5 10.9999C3.03587 10.9999 2.59075 10.8068 2.26256 10.4629C1.93438 10.1191 1.75 9.65282 1.75 9.16659C1.75 8.68035 1.93438 8.21404 2.26256 7.87022C2.59075 7.52641 3.03587 7.33325 3.5 7.33325C3.96413 7.33325 4.40925 7.52641 4.73744 7.87022C5.06563 8.21404 5.25 8.68035 5.25 9.16659Z" stroke="white" stroke-linecap="round" stroke-linejoin="round"></path>
<path d="M19.25 11.0001C19.25 11.4863 19.0656 11.9526 18.7374 12.2964C18.4092 12.6403 17.9641 12.8334 17.5 12.8334C17.0359 12.8334 16.5908 12.6403 16.2626 12.2964C15.9344 11.9526 15.75 11.4863 15.75 11.0001C15.75 10.5139 15.9344 10.0475 16.2626 9.70372C16.5908 9.3599 17.0359 9.16675 17.5 9.16675C17.9641 9.16675 18.4092 9.3599 18.7374 9.70372C19.0656 10.0475 19.25 10.5139 19.25 11.0001Z" stroke="white" stroke-linecap="round" stroke-linejoin="round"></path>
<path d="M19.25 18.3333C19.25 18.8196 19.0656 19.2859 18.7374 19.6297C18.4092 19.9735 17.9641 20.1667 17.5 20.1667C17.0359 20.1667 16.5908 19.9735 16.2626 19.6297C15.9344 19.2859 15.75 18.8196 15.75 18.3333C15.75 17.8471 15.9344 17.3808 16.2626 17.037C16.5908 16.6932 17.0359 16.5 17.5 16.5C17.9641 16.5 18.4092 16.6932 18.7374 17.037C19.0656 17.3808 19.25 17.8471 19.25 18.3333Z" stroke="white" stroke-linecap="round" stroke-linejoin="round"></path>
<path d="M15.75 11H13.125C12.8929 11 12.6704 11.0966 12.5063 11.2685C12.3422 11.4404 12.25 11.6736 12.25 11.9167V17.4167C12.25 17.6598 12.3422 17.8929 12.5063 18.0648C12.6704 18.2368 12.8929 18.3333 13.125 18.3333H15.75" stroke="white" stroke-linecap="round" stroke-linejoin="round"></path>
<path d="M15.75 3.66675H9.625C9.39294 3.66675 9.17038 3.76333 9.00628 3.93523C8.84219 4.10714 8.75 4.3403 8.75 4.58341V13.7501C8.75 13.9932 8.84219 14.2264 9.00628 14.3983C9.17038 14.5702 9.39294 14.6667 9.625 14.6667H11.375" stroke="white" stroke-linecap="round" stroke-linejoin="round"></path>
<path d="M8.75 9.16675H5.25" stroke="white" stroke-linecap="round" stroke-linejoin="round"></path>
</g>
<defs>
<clipPath id="clip0_1_1781">
<rect width="21" height="22" fill="white" transform="matrix(-1 0 0 1 21 0)"></rect>
</clipPath>
</defs>
</svg>